<svg version="1.1" viewBox="0.0 0.0 960.0 540.0" fill="none" stroke="none" stroke-linecap="square" stroke-miterlimit="10" xmlns:xlink="http://www.w3.org/1999/xlink" xmlns="http://www.w3.org/2000/svg"><clipPath id="g621a5687ca_0_0.0"><path d="m0 0l960.0 0l0 540.0l-960.0 0l0 -540.0z" clip-rule="nonzero"/></clipPath><g clip-path="url(#g621a5687ca_0_0.0)"><path fill="#ffffff" d="m0 0l960.0 0l0 540.0l-960.0 0z" fill-rule="evenodd"/><path fill="#343a40" d="m58.36394 76.26616l0 0c0 -12.425587 10.072926 -22.498512 22.498508 -22.498512l791.16046 0c5.96698 0 11.689575 2.3703728 15.9088745 6.5896606c4.2192993 4.2192917 6.5896606 9.941872 6.5896606 15.908852l0 387.91638c0 12.425568 -10.072937 22.498505 -22.498535 22.498505l-791.16046 0c-12.425583 0 -22.498508 -10.072937 -22.498508 -22.498505z" fill-rule="evenodd"/><path fill="#000000" fill-opacity="0.0" d="m58.081364 52.072178l836.1575 0l0 55.52756l-836.1575 0z" fill-rule="evenodd"/><path fill="#ffffff" d="m359.57526 76.195305l-6.078125 0l-1.15625 2.796875l-3.09375 0l5.828125 -13.0625l2.984375 0l5.84375 13.0625l-3.171875 0l-1.15625 -2.796875zm-0.953125 -2.296875l-2.078125 -5.0l-2.0625 5.0l4.140625 0zm14.64093 2.859375l0 2.234375l-8.953125 0l0 -1.75l5.109375 -6.046875l-4.984375 0l0 -2.234375l8.65625 0l0 1.75l-5.109375 6.046875l5.28125 0zm6.177246 -1.703125l-1.40625 1.375l0 2.5625l-2.90625 0l0 -13.84375l2.90625 0l0 7.84375l4.25 -4.03125l3.484375 0l-4.1875 4.25l4.546875 5.78125l-3.515625 0l-3.171875 -3.9375zm11.86084 -6.25q2.328125 0 3.578125 1.109375q1.25 1.109375 1.25 3.34375l0 5.734375l-2.71875 0l0 -1.25q-0.828125 1.40625 -3.0625 1.40625q-1.15625 0 -2.015625 -0.390625q-0.84375 -0.40625 -1.296875 -1.09375q-0.4375 -0.6875 -0.4375 -1.5625q0 -1.40625 1.046875 -2.203125q1.0625 -0.796875 3.265625 -0.796875l2.3125 0q0 -0.953125 -0.578125 -1.46875q-0.578125 -0.515625 -1.734375 -0.515625q-0.796875 0 -1.578125 0.25q-0.765625 0.25 -1.3125 0.6875l-1.046875 -2.03125q0.828125 -0.578125 1.96875 -0.890625q1.140625 -0.328125 2.359375 -0.328125zm-0.21875 8.375q0.734375 0 1.3125 -0.34375q0.59375 -0.34375 0.828125 -1.015625l0 -1.03125l-2.0 0q-1.78125 0 -1.78125 1.1875q0 0.546875 0.4375 0.875q0.4375 0.328125 1.203125 0.328125zm10.46402 -6.90625q0.515625 -0.71875 1.40625 -1.09375q0.890625 -0.375 2.046875 -0.375l0 2.6875q-0.484375 -0.03125 -0.65625 -0.03125q-1.25 0 -1.96875 0.703125q-0.703125 0.6875 -0.703125 2.09375l0 4.734375l-2.90625 0l0 -10.03125l2.78125 0l0 1.3125zm7.9661865 0q0.515625 -0.71875 1.40625 -1.09375q0.890625 -0.375 2.046875 -0.375l0 2.6875q-0.484375 -0.03125 -0.65625 -0.03125q-1.25 0 -1.96875 0.703125q-0.703125 0.6875 -0.703125 2.09375l0 4.734375l-2.90625 0l0 -10.03125l2.78125 0l0 1.3125zm9.175812 -1.46875q2.328125 0 3.578125 1.109375q1.25 1.109375 1.25 3.34375l0 5.734375l-2.71875 0l0 -1.25q-0.828125 1.40625 -3.0625 1.40625q-1.15625 0 -2.015625 -0.390625q-0.84375 -0.40625 -1.296875 -1.09375q-0.4375 -0.6875 -0.4375 -1.5625q0 -1.40625 1.046875 -2.203125q1.0625 -0.796875 3.265625 -0.796875l2.3125 0q0 -0.953125 -0.578125 -1.46875q-0.578125 -0.515625 -1.734375 -0.515625q-0.796875 0 -1.578125 0.25q-0.765625 0.25 -1.3125 0.6875l-1.046875 -2.03125q0.828125 -0.578125 1.96875 -0.890625q1.140625 -0.328125 2.359375 -0.328125zm-0.21875 8.375q0.734375 0 1.3125 -0.34375q0.59375 -0.34375 0.828125 -1.015625l0 -1.03125l-2.0 0q-1.78125 0 -1.78125 1.1875q0 0.546875 0.4375 0.875q0.4375 0.328125 1.203125 0.328125zm21.775024 -0.984375l-6.078125 0l-1.15625 2.796875l-3.09375 0l5.828125 -13.0625l2.984375 0l5.84375 13.0625l-3.171875 0l-1.15625 -2.796875zm-0.953125 -2.296875l-2.078125 -5.0l-2.0625 5.0l4.140625 0zm12.368805 -5.09375q1.390625 0 2.53125 0.640625q1.15625 0.640625 1.8125 1.8125q0.65625 1.171875 0.65625 2.71875q0 1.546875 -0.65625 2.71875q-0.65625 1.15625 -1.8125 1.8125q-1.140625 0.640625 -2.53125 0.640625q-1.921875 0 -3.03125 -1.21875l0 4.6875l-2.90625 0l0 -13.65625l2.78125 0l0 1.15625q1.078125 -1.3125 3.15625 -1.3125zm-0.515625 7.953125q1.125 0 1.84375 -0.75q0.71875 -0.765625 0.71875 -2.03125q0 -1.265625 -0.71875 -2.015625q-0.71875 -0.765625 -1.84375 -0.765625q-1.109375 0 -1.828125 0.765625q-0.71875 0.75 -0.71875 2.015625q0 1.265625 0.71875 2.03125q0.71875 0.75 1.828125 0.75zm13.388458 -7.953125q1.390625 0 2.53125 0.640625q1.15625 0.640625 1.8125 1.8125q0.65625 1.171875 0.65625 2.71875q0 1.546875 -0.65625 2.71875q-0.65625 1.15625 -1.8125 1.8125q-1.140625 0.640625 -2.53125 0.640625q-1.921875 0 -3.03125 -1.21875l0 4.6875l-2.90625 0l0 -13.65625l2.78125 0l0 1.15625q1.078125 -1.3125 3.15625 -1.3125zm-0.515625 7.953125q1.125 0 1.84375 -0.75q0.71875 -0.765625 0.71875 -2.03125q0 -1.265625 -0.71875 -2.015625q-0.71875 -0.765625 -1.84375 -0.765625q-1.109375 0 -1.828125 0.765625q-0.71875 0.75 -0.71875 2.015625q0 1.265625 0.71875 2.03125q0.71875 0.75 1.828125 0.75zm7.4509277 -11.609375l2.90625 0l0 13.84375l-2.90625 0l0 -13.84375zm5.6155396 3.8125l2.90625 0l0 10.03125l-2.90625 0l0 -10.03125zm1.453125 -1.40625q-0.8125 0 -1.3125 -0.46875q-0.5 -0.46875 -0.5 -1.15625q0 -0.6875 0.5 -1.15625q0.5 -0.46875 1.3125 -0.46875q0.796875 0 1.296875 0.453125q0.515625 0.453125 0.515625 1.125q0 0.71875 -0.515625 1.203125q-0.5 0.46875 -1.296875 0.46875zm9.006165 11.59375q-1.59375 0 -2.875 -0.65625q-1.28125 -0.671875 -2.0 -1.84375q-0.71875 -1.1875 -0.71875 -2.671875q0 -1.5 0.71875 -2.671875q0.71875 -1.171875 2.0 -1.828125q1.28125 -0.671875 2.875 -0.671875q1.59375 0 2.78125 0.671875q1.1875 0.65625 1.71875 1.890625l-2.25 1.203125q-0.78125 -1.375 -2.265625 -1.375q-1.140625 0 -1.890625 0.75q-0.734375 0.734375 -0.734375 2.03125q0 1.28125 0.734375 2.03125q0.75 0.75 1.890625 0.75q1.5 0 2.265625 -1.390625l2.25 1.234375q-0.53125 1.203125 -1.71875 1.875q-1.1875 0.671875 -2.78125 0.671875zm10.228973 -10.34375q2.328125 0 3.578125 1.109375q1.25 1.109375 1.25 3.34375l0 5.734375l-2.71875 0l0 -1.25q-0.828125 1.40625 -3.0625 1.40625q-1.15625 0 -2.015625 -0.390625q-0.84375 -0.40625 -1.296875 -1.09375q-0.4375 -0.6875 -0.4375 -1.5625q0 -1.40625 1.046875 -2.203125q1.0625 -0.796875 3.265625 -0.796875l2.3125 0q0 -0.953125 -0.578125 -1.46875q-0.578125 -0.515625 -1.734375 -0.515625q-0.796875 0 -1.578125 0.25q-0.765625 0.25 -1.3125 0.6875l-1.046875 -2.03125q0.828125 -0.578125 1.96875 -0.890625q1.140625 -0.328125 2.359375 -0.328125zm-0.21875 8.375q0.734375 0 1.3125 -0.34375q0.59375 -0.34375 0.828125 -1.015625l0 -1.03125l-2.0 0q-1.78125 0 -1.78125 1.1875q0 0.546875 0.4375 0.875q0.4375 0.328125 1.203125 0.328125zm14.15152 1.328125q-0.421875 0.3125 -1.046875 0.484375q-0.625 0.15625 -1.3125 0.15625q-1.796875 0 -2.78125 -0.90625q-0.96875 -0.921875 -0.96875 -2.703125l0 -4.125l-1.546875 0l0 -2.234375l1.546875 0l0 -2.4375l2.90625 0l0 2.4375l2.5 0l0 2.234375l-2.5 0l0 4.09375q0 0.625 0.328125 0.96875q0.328125 0.34375 0.921875 0.34375q0.6875 0 1.171875 -0.359375l0.78125 2.046875zm1.6467285 -9.546875l2.90625 0l0 10.03125l-2.90625 0l0 -10.03125zm1.453125 -1.40625q-0.8125 0 -1.3125 -0.46875q-0.5 -0.46875 -0.5 -1.15625q0 -0.6875 0.5 -1.15625q0.5 -0.46875 1.3125 -0.46875q0.796875 0 1.296875 0.453125q0.515625 0.453125 0.515625 1.125q0 0.71875 -0.515625 1.203125q-0.5 0.46875 -1.296875 0.46875zm8.943665 11.59375q-1.59375 0 -2.859375 -0.65625q-1.25 -0.671875 -1.96875 -1.84375q-0.703125 -1.1875 -0.703125 -2.671875q0 -1.5 0.703125 -2.671875q0.71875 -1.171875 1.96875 -1.828125q1.265625 -0.671875 2.859375 -0.671875q1.578125 0 2.828125 0.671875q1.25 0.65625 1.953125 1.828125q0.71875 1.171875 0.71875 2.671875q0 1.484375 -0.71875 2.671875q-0.703125 1.171875 -1.953125 1.84375q-1.25 0.65625 -2.828125 0.65625zm0 -2.390625q1.109375 0 1.828125 -0.75q0.71875 -0.765625 0.71875 -2.03125q0 -1.265625 -0.71875 -2.015625q-0.71875 -0.765625 -1.828125 -0.765625q-1.125 0 -1.859375 0.765625q-0.71875 0.75 -0.71875 2.015625q0 1.265625 0.71875 2.03125q0.734375 0.75 1.859375 0.75zm13.532349 -7.953125q1.875 0 3.015625 1.125q1.15625 1.109375 1.15625 3.3125l0 5.75l-2.921875 0l0 -5.296875q0 -1.203125 -0.515625 -1.78125q-0.515625 -0.59375 -1.515625 -0.59375q-1.09375 0 -1.75 0.6875q-0.65625 0.671875 -0.65625 2.015625l0 4.96875l-2.90625 0l0 -10.03125l2.78125 0l0 1.171875q0.578125 -0.640625 1.4375 -0.984375q0.859375 -0.34375 1.875 -0.34375zm14.421204 13.8125q-1.109375 -1.703125 -1.71875 -3.9375q-0.609375 -2.25 -0.609375 -4.796875q0 -2.5625 0.609375 -4.796875q0.609375 -2.25 1.71875 -3.9375l2.78125 0q-1.171875 2.078125 -1.71875 4.21875q-0.53125 2.125 -0.53125 4.515625q0 2.390625 0.53125 4.53125q0.546875 2.125 1.71875 4.203125l-2.78125 0zm6.9259033 -3.40625q-1.328125 0 -2.4375 -0.484375q-1.109375 -0.5 -1.8125 -1.40625l1.671875 -2.015625q1.0625 1.4375 2.4375 1.4375q1.84375 0 1.84375 -2.171875l0 -6.21875l-4.59375 0l0 -2.421875l7.59375 0l0 8.46875q0 2.40625 -1.203125 3.609375q-1.1875 1.203125 -3.5 1.203125zm20.249268 -13.28125l-5.65625 13.0625l-2.984375 0l-5.640625 -13.0625l3.265625 0l3.984375 9.328125l4.015625 -9.328125l3.015625 0zm12.965698 13.0625l-0.03125 -7.828125l-3.828125 6.453125l-1.375 0l-3.8125 -6.296875l0 7.671875l-2.84375 0l0 -13.0625l2.5 0l4.890625 8.125l4.8125 -8.125l2.484375 0l0.03125 13.0625l-2.828125 0zm4.5667114 3.625q1.171875 -2.078125 1.71875 -4.203125q0.5625 -2.140625 0.5625 -4.53125q0 -2.390625 -0.5625 -4.515625q-0.546875 -2.140625 -1.71875 -4.21875l2.78125 0q1.140625 1.65625 1.734375 3.90625q0.609375 2.25 0.609375 4.828125q0 2.578125 -0.59375 4.8125q-0.59375 2.21875 -1.75 3.921875l-2.78125 0z" fill-rule="nonzero"/><path fill="#595959" d="m107.604034 143.24121l731.4331 0l0 234.48819l-731.4331 0z" fill-rule="evenodd"/><path stroke="#26b793" stroke-width="3.0" stroke-linejoin="round" stroke-linecap="butt" d="m107.604034 143.24121l731.4331 0l0 234.48819l-731.4331 0z" fill-rule="evenodd"/><path fill="#f8f9fa" d="m130.29253 235.72478l328.40942 0l0 86.23622l-328.40942 0z" fill-rule="evenodd"/><path stroke="#2880c1" stroke-width="3.0" stroke-linejoin="round" stroke-linecap="butt" d="m130.29253 235.72478l328.40942 0l0 86.23622l-328.40942 0z" fill-rule="evenodd"/><path fill="#000000" fill-opacity="0.0" d="m107.604034 139.6464l731.4331 0l0 46.04724l-731.4331 0z" fill-rule="evenodd"/><path fill="#ffffff" d="m418.14206 161.41264l-5.59375 0l-1.109375 2.59375l-2.140625 0l5.03125 -11.203125l2.0625 0l5.046875 11.203125l-2.171875 0l-1.125 -2.59375zm-0.6875 -1.625l-2.109375 -4.90625l-2.09375 4.90625l4.203125 0zm11.858276 2.625l0 1.59375l-7.375 0l0 -1.265625l4.6875 -5.671875l-4.59375 0l0 -1.609375l7.15625 0l0 1.265625l-4.703125 5.6875l4.828125 0zm5.324524 -2.0625l-1.484375 1.40625l0 2.25l-2.0 0l0 -11.875l2.0 0l0 7.171875l4.140625 -3.84375l2.40625 0l-3.578125 3.59375l3.90625 4.953125l-2.421875 0l-2.96875 -3.65625zm9.797272 -4.984375q1.890625 0 2.890625 0.90625q1.0 0.90625 1.0 2.71875l0 5.015625l-1.890625 0l0 -1.046875q-0.375 0.5625 -1.0625 0.859375q-0.671875 0.296875 -1.625 0.296875q-0.96875 0 -1.6875 -0.328125q-0.71875 -0.328125 -1.109375 -0.90625q-0.390625 -0.59375 -0.390625 -1.328125q0 -1.140625 0.859375 -1.828125q0.859375 -0.703125 2.6875 -0.703125l2.21875 0l0 -0.140625q0 -0.890625 -0.546875 -1.359375q-0.53125 -0.484375 -1.578125 -0.484375q-0.734375 0 -1.4375 0.21875q-0.6875 0.21875 -1.15625 0.625l-0.796875 -1.453125q0.671875 -0.515625 1.609375 -0.78125q0.953125 -0.28125 2.015625 -0.28125zm-0.28125 7.296875q0.765625 0 1.34375 -0.34375q0.578125 -0.34375 0.828125 -0.984375l0 -0.984375l-2.0625 0q-1.734375 0 -1.734375 1.125q0 0.546875 0.421875 0.875q0.4375 0.3125 1.203125 0.3125zm8.633881 -5.953125q0.859375 -1.34375 3.03125 -1.34375l0 1.90625q-0.25 -0.046875 -0.453125 -0.046875q-1.171875 0 -1.828125 0.6875q-0.65625 0.671875 -0.65625 1.953125l0 4.140625l-2.0 0l0 -8.546875l1.90625 0l0 1.25zm6.6400146 0q0.859375 -1.34375 3.03125 -1.34375l0 1.90625q-0.25 -0.046875 -0.453125 -0.046875q-1.171875 0 -1.828125 0.6875q-0.65625 0.671875 -0.65625 1.953125l0 4.140625l-2.0 0l0 -8.546875l1.90625 0l0 1.25zm7.951416 -1.34375q1.890625 0 2.890625 0.90625q1.0 0.90625 1.0 2.71875l0 5.015625l-1.890625 0l0 -1.046875q-0.375 0.5625 -1.0625 0.859375q-0.671875 0.296875 -1.625 0.296875q-0.96875 0 -1.6875 -0.328125q-0.71875 -0.328125 -1.109375 -0.90625q-0.390625 -0.59375 -0.390625 -1.328125q0 -1.140625 0.859375 -1.828125q0.859375 -0.703125 2.6875 -0.703125l2.21875 0l0 -0.140625q0 -0.890625 -0.546875 -1.359375q-0.53125 -0.484375 -1.578125 -0.484375q-0.734375 0 -1.4375 0.21875q-0.6875 0.21875 -1.15625 0.625l-0.796875 -1.453125q0.671875 -0.515625 1.609375 -0.78125q0.953125 -0.28125 2.015625 -0.28125zm-0.28125 7.296875q0.765625 0 1.34375 -0.34375q0.578125 -0.34375 0.828125 -0.984375l0 -0.984375l-2.0625 0q-1.734375 0 -1.734375 1.125q0 0.546875 0.421875 0.875q0.4375 0.3125 1.203125 0.3125zm12.102631 1.5q-1.703125 0 -3.078125 -0.734375q-1.359375 -0.75 -2.140625 -2.0625q-0.765625 -1.3125 -0.765625 -2.953125q0 -1.65625 0.78125 -2.96875q0.78125 -1.3125 2.15625 -2.046875q1.375 -0.75 3.0625 -0.75q1.375 0 2.515625 0.484375q1.140625 0.46875 1.921875 1.390625l-1.34375 1.265625q-1.21875 -1.3125 -3.0 -1.3125q-1.15625 0 -2.0625 0.5q-0.90625 0.5 -1.421875 1.40625q-0.515625 0.890625 -0.515625 2.03125q0 1.125 0.515625 2.03125q0.515625 0.890625 1.421875 1.40625q0.90625 0.5 2.0625 0.5q1.78125 0 3.0 -1.328125l1.34375 1.265625q-0.78125 0.921875 -1.9375 1.40625q-1.140625 0.46875 -2.515625 0.46875zm9.780762 -0.046875q-1.296875 0 -2.34375 -0.5625q-1.03125 -0.5625 -1.625 -1.5625q-0.578125 -1.0 -0.578125 -2.25q0 -1.265625 0.578125 -2.25q0.59375 -1.0 1.625 -1.5625q1.046875 -0.5625 2.34375 -0.5625q1.3125 0 2.34375 0.5625q1.046875 0.5625 1.625 1.5625q0.59375 0.984375 0.59375 2.25q0 1.25 -0.59375 2.25q-0.578125 1.0 -1.625 1.5625q-1.03125 0.5625 -2.34375 0.5625zm0 -1.703125q1.09375 0 1.8125 -0.734375q0.734375 -0.75 0.734375 -1.9375q0 -1.203125 -0.734375 -1.9375q-0.71875 -0.734375 -1.8125 -0.734375q-1.109375 0 -1.828125 0.734375q-0.703125 0.734375 -0.703125 1.9375q0 1.1875 0.703125 1.9375q0.71875 0.734375 1.828125 0.734375zm11.320038 -7.046875q1.625 0 2.59375 0.953125q0.984375 0.9375 0.984375 2.796875l0 4.890625l-2.0 0l0 -4.640625q0 -1.125 -0.53125 -1.6875q-0.53125 -0.5625 -1.5 -0.5625q-1.109375 0 -1.75 0.671875q-0.640625 0.65625 -0.640625 1.90625l0 4.3125l-2.0 0l0 -8.546875l1.90625 0l0 1.109375q0.5 -0.59375 1.25 -0.890625q0.75 -0.3125 1.6875 -0.3125zm11.256897 8.171875q-0.359375 0.296875 -0.859375 0.4375q-0.5 0.140625 -1.0625 0.140625q-1.40625 0 -2.1875 -0.734375q-0.765625 -0.734375 -0.765625 -2.140625l0 -4.109375l-1.40625 0l0 -1.609375l1.40625 0l0 -1.953125l2.0 0l0 1.953125l2.296875 0l0 1.609375l-2.296875 0l0 4.0625q0 0.625 0.296875 0.953125q0.3125 0.328125 0.890625 0.328125q0.671875 0 1.125 -0.359375l0.5625 1.421875zm9.386627 -3.75q0 0.203125 -0.03125 0.59375l-6.703125 0q0.171875 0.9375 0.90625 1.5q0.75 0.546875 1.859375 0.546875q1.40625 0 2.328125 -0.9375l1.0625 1.234375q-0.578125 0.6875 -1.453125 1.046875q-0.875 0.34375 -1.984375 0.34375q-1.40625 0 -2.484375 -0.5625q-1.0625 -0.5625 -1.65625 -1.5625q-0.578125 -1.0 -0.578125 -2.25q0 -1.25 0.5625 -2.25q0.578125 -1.0 1.578125 -1.5625q1.015625 -0.5625 2.28125 -0.5625q1.234375 0 2.21875 0.5625q0.984375 0.546875 1.53125 1.546875q0.5625 1.0 0.5625 2.3125zm-4.3125 -2.828125q-0.96875 0 -1.640625 0.578125q-0.65625 0.5625 -0.796875 1.515625l4.84375 0q-0.125 -0.9375 -0.78125 -1.515625q-0.65625 -0.578125 -1.625 -0.578125zm11.430725 7.046875l-2.1875 -2.953125l-2.203125 2.953125l-2.21875 0l3.328125 -4.34375l-3.1875 -4.203125l2.234375 0l2.09375 2.796875l2.09375 -2.796875l2.15625 0l-3.203125 4.171875l3.359375 4.375l-2.265625 0zm8.871155 -0.46875q-0.359375 0.296875 -0.859375 0.4375q-0.5 0.140625 -1.0625 0.140625q-1.40625 0 -2.1875 -0.734375q-0.765625 -0.734375 -0.765625 -2.140625l0 -4.109375l-1.40625 0l0 -1.609375l1.40625 0l0 -1.953125l2.0 0l0 1.953125l2.296875 0l0 1.609375l-2.296875 0l0 4.0625q0 0.625 0.296875 0.953125q0.3125 0.328125 0.890625 0.328125q0.671875 0 1.125 -0.359375l0.5625 1.421875z" fill-rule="nonzero"/><path fill="#000000" fill-opacity="0.0" d="m130.27107 196.60379l328.40942 0l0 46.04724l-328.40942 0z" fill-rule="evenodd"/><path fill="#f3f3f3" d="m191.13899 224.56804q-1.078125 0 -2.09375 -0.3125q-1.0 -0.3125 -1.578125 -0.8125l0.59375 -1.34375q0.578125 0.453125 1.40625 0.734375q0.84375 0.28125 1.671875 0.28125q1.046875 0 1.546875 -0.328125q0.515625 -0.328125 0.515625 -0.875q0 -0.40625 -0.28125 -0.65625q-0.28125 -0.265625 -0.71875 -0.40625q-0.4375 -0.15625 -1.203125 -0.34375q-1.0625 -0.25 -1.734375 -0.5q-0.65625 -0.25 -1.125 -0.78125q-0.46875 -0.546875 -0.46875 -1.46875q0 -0.78125 0.40625 -1.40625q0.421875 -0.640625 1.265625 -1.015625q0.859375 -0.375 2.078125 -0.375q0.859375 0 1.6875 0.21875q0.828125 0.21875 1.421875 0.609375l-0.546875 1.34375q-0.609375 -0.359375 -1.28125 -0.546875q-0.671875 -0.1875 -1.296875 -0.1875q-1.015625 0 -1.515625 0.359375q-0.5 0.34375 -0.5 0.921875q0 0.390625 0.28125 0.65625q0.28125 0.25 0.71875 0.390625q0.453125 0.140625 1.203125 0.328125q1.046875 0.25 1.703125 0.515625q0.671875 0.25 1.140625 0.78125q0.484375 0.53125 0.484375 1.4375q0 0.78125 -0.421875 1.40625q-0.421875 0.625 -1.28125 1.0q-0.84375 0.375 -2.078125 0.375zm9.617737 -0.53125q-0.296875 0.25 -0.71875 0.375q-0.421875 0.109375 -0.890625 0.109375q-1.171875 0 -1.8125 -0.609375q-0.640625 -0.625 -0.640625 -1.796875l0 -3.421875l-1.171875 0l0 -1.328125l1.171875 0l0 -1.625l1.671875 0l0 1.625l1.90625 0l0 1.328125l-1.90625 0l0 3.390625q0 0.515625 0.25 0.796875q0.25 0.265625 0.734375 0.265625q0.5625 0 0.9375 -0.296875l0.46875 1.1875zm2.9479828 -5.6875q0.734375 -1.125 2.546875 -1.125l0 1.59375q-0.21875 -0.046875 -0.390625 -0.046875q-0.96875 0 -1.515625 0.578125q-0.546875 0.5625 -0.546875 1.625l0 3.453125l-1.671875 0l0 -7.125l1.578125 0l0 1.046875zm10.573837 2.5625q0 0.171875 -0.03125 0.484375l-5.578125 0q0.140625 0.796875 0.765625 1.265625q0.625 0.453125 1.546875 0.453125q1.171875 0 1.921875 -0.78125l0.890625 1.03125q-0.46875 0.5625 -1.203125 0.859375q-0.734375 0.296875 -1.65625 0.296875q-1.171875 0 -2.0625 -0.46875q-0.890625 -0.46875 -1.390625 -1.296875q-0.484375 -0.828125 -0.484375 -1.890625q0 -1.03125 0.46875 -1.859375q0.484375 -0.84375 1.3125 -1.3125q0.84375 -0.46875 1.90625 -0.46875q1.03125 0 1.84375 0.46875q0.828125 0.453125 1.28125 1.296875q0.46875 0.828125 0.46875 1.921875zm-3.59375 -2.34375q-0.796875 0 -1.359375 0.46875q-0.546875 0.46875 -0.671875 1.265625l4.046875 0q-0.109375 -0.78125 -0.65625 -1.25q-0.546875 -0.484375 -1.359375 -0.484375zm7.7150726 -1.34375q1.578125 0 2.40625 0.765625q0.828125 0.75 0.828125 2.265625l0 4.171875l-1.5625 0l0 -0.859375q-0.3125 0.453125 -0.890625 0.703125q-0.5625 0.25 -1.359375 0.25q-0.796875 0 -1.40625 -0.265625q-0.59375 -0.28125 -0.921875 -0.765625q-0.3125 -0.484375 -0.3125 -1.109375q0 -0.953125 0.703125 -1.53125q0.71875 -0.578125 2.25 -0.578125l1.84375 0l0 -0.109375q0 -0.75 -0.453125 -1.140625q-0.453125 -0.40625 -1.328125 -0.40625q-0.59375 0 -1.171875 0.1875q-0.578125 0.1875 -0.984375 0.515625l-0.65625 -1.203125q0.5625 -0.4375 1.34375 -0.65625q0.796875 -0.234375 1.671875 -0.234375zm-0.234375 6.078125q0.640625 0 1.125 -0.28125q0.484375 -0.28125 0.6875 -0.8125l0 -0.828125l-1.71875 0q-1.453125 0 -1.453125 0.9375q0 0.453125 0.359375 0.71875q0.375 0.265625 1.0 0.265625zm14.590149 -6.078125q1.34375 0 2.125 0.78125q0.796875 0.78125 0.796875 2.34375l0 4.078125l-1.671875 0l0 -3.859375q0 -0.9375 -0.421875 -1.40625q-0.40625 -0.484375 -1.171875 -0.484375q-0.84375 0 -1.359375 0.5625q-0.5 0.546875 -0.5 1.578125l0 3.609375l-1.671875 0l0 -3.859375q0 -0.9375 -0.40625 -1.40625q-0.40625 -0.484375 -1.1875 -0.484375q-0.84375 0 -1.34375 0.546875q-0.5 0.546875 -0.5 1.59375l0 3.609375l-1.671875 0l0 -7.125l1.578125 0l0 0.921875q0.40625 -0.484375 1.0 -0.734375q0.609375 -0.265625 1.34375 -0.265625q0.796875 0 1.40625 0.3125q0.625 0.296875 0.984375 0.875q0.4375 -0.5625 1.125 -0.875q0.703125 -0.3125 1.546875 -0.3125zm7.2532196 7.296875q-0.875 0 -1.703125 -0.21875q-0.828125 -0.234375 -1.3125 -0.578125l0.640625 -1.265625q0.484375 0.3125 1.15625 0.515625q0.671875 0.1875 1.328125 0.1875q1.484375 0 1.484375 -0.78125q0 -0.375 -0.390625 -0.515625q-0.375 -0.15625 -1.203125 -0.296875q-0.890625 -0.125 -1.4375 -0.296875q-0.546875 -0.171875 -0.953125 -0.609375q-0.40625 -0.4375 -0.40625 -1.203125q0 -1.015625 0.84375 -1.625q0.84375 -0.609375 2.28125 -0.609375q0.734375 0 1.46875 0.171875q0.734375 0.171875 1.203125 0.453125l-0.640625 1.265625q-0.90625 -0.53125 -2.046875 -0.53125q-0.734375 0 -1.109375 0.21875q-0.375 0.21875 -0.375 0.578125q0 0.390625 0.40625 0.5625q0.40625 0.171875 1.25 0.3125q0.859375 0.140625 1.40625 0.3125q0.546875 0.171875 0.9375 0.59375q0.390625 0.40625 0.390625 1.15625q0 1.0 -0.875 1.609375q-0.859375 0.59375 -2.34375 0.59375zm11.817078 -1.546875l0 1.453125l-7.0 0l0 -9.328125l6.8125 0l0 1.453125l-5.078125 0l0 2.421875l4.5 0l0 1.421875l-4.5 0l0 2.578125l5.265625 0zm6.171463 1.453125l-1.828125 -2.46875l-1.8437347 2.46875l-1.828125 0l2.765625 -3.609375l-2.65625 -3.515625l1.859375 0l1.7499847 2.34375l1.734375 -2.34375l1.8125 0l-2.671875 3.484375l2.78125 3.640625l-1.875 0zm9.553253 -3.515625q0 0.171875 -0.03125 0.484375l-5.578125 0q0.140625 0.796875 0.765625 1.265625q0.625 0.453125 1.546875 0.453125q1.171875 0 1.921875 -0.78125l0.890625 1.03125q-0.46875 0.5625 -1.203125 0.859375q-0.734375 0.296875 -1.65625 0.296875q-1.171875 0 -2.0625 -0.46875q-0.890625 -0.46875 -1.390625 -1.296875q-0.484375 -0.828125 -0.484375 -1.890625q0 -1.03125 0.46875 -1.859375q0.484375 -0.84375 1.3125 -1.3125q0.84375 -0.46875 1.90625 -0.46875q1.03125 0 1.84375 0.46875q0.828125 0.453125 1.28125 1.296875q0.46875 0.828125 0.46875 1.921875zm-3.59375 -2.34375q-0.796875 0 -1.359375 0.46875q-0.546875 0.46875 -0.671875 1.265625l4.046875 0q-0.109375 -0.78125 -0.65625 -1.25q-0.546875 -0.484375 -1.359375 -0.484375zm8.461945 5.953125q-1.109375 0 -1.984375 -0.46875q-0.875 -0.46875 -1.375 -1.296875q-0.5 -0.828125 -0.5 -1.890625q0 -1.046875 0.5 -1.875q0.5 -0.828125 1.359375 -1.296875q0.875 -0.46875 2.0 -0.46875q1.046875 0 1.84375 0.4375q0.796875 0.421875 1.1875 1.21875l-1.265625 0.75q-0.3125 -0.5 -0.78125 -0.734375q-0.453125 -0.25 -1.0 -0.25q-0.9375 0 -1.546875 0.609375q-0.609375 0.59375 -0.609375 1.609375q0 1.015625 0.609375 1.625q0.609375 0.609375 1.546875 0.609375q0.546875 0 1.0 -0.25q0.46875 -0.25 0.78125 -0.734375l1.265625 0.734375q-0.40625 0.8125 -1.203125 1.25q-0.796875 0.421875 -1.828125 0.421875zm11.368591 -7.21875l0 7.125l-1.59375 0l0 -0.90625q-0.390625 0.484375 -1.0 0.75q-0.59375 0.25 -1.28125 0.25q-1.4375 0 -2.25 -0.796875q-0.8125 -0.796875 -0.8125 -2.34375l0 -4.078125l1.65625 0l0 3.84375q0 0.96875 0.4375 1.4375q0.4375 0.46875 1.234375 0.46875q0.890625 0 1.40625 -0.546875q0.53125 -0.5625 0.53125 -1.59375l0 -3.609375l1.671875 0zm6.467041 6.734375q-0.296875 0.25 -0.71875 0.375q-0.421875 0.109375 -0.890625 0.109375q-1.171875 0 -1.8125 -0.609375q-0.640625 -0.625 -0.640625 -1.796875l0 -3.421875l-1.171875 0l0 -1.328125l1.171875 0l0 -1.625l1.671875 0l0 1.625l1.90625 0l0 1.328125l-1.90625 0l0 3.390625q0 0.515625 0.25 0.796875q0.25 0.265625 0.734375 0.265625q0.5625 0 0.9375 -0.296875l0.46875 1.1875zm1.369873 -6.734375l1.671875 0l0 7.125l-1.671875 0l0 -7.125zm0.84375 -1.171875q-0.453125 0 -0.765625 -0.28125q-0.296875 -0.28125 -0.296875 -0.71875q0 -0.421875 0.296875 -0.703125q0.3125 -0.296875 0.765625 -0.296875q0.453125 0 0.75 0.28125q0.3125 0.265625 0.3125 0.6875q0 0.4375 -0.296875 0.734375q-0.296875 0.296875 -0.765625 0.296875zm6.2111816 8.390625q-1.078125 0 -1.953125 -0.46875q-0.859375 -0.46875 -1.359375 -1.296875q-0.484375 -0.828125 -0.484375 -1.890625q0 -1.046875 0.484375 -1.875q0.5 -0.828125 1.359375 -1.296875q0.875 -0.46875 1.953125 -0.46875q1.09375 0 1.953125 0.46875q0.875 0.46875 1.359375 1.296875q0.484375 0.828125 0.484375 1.875q0 1.0625 -0.484375 1.890625q-0.484375 0.828125 -1.359375 1.296875q-0.859375 0.46875 -1.953125 0.46875zm0 -1.421875q0.921875 0 1.515625 -0.609375q0.59375 -0.625 0.59375 -1.625q0 -1.0 -0.59375 -1.609375q-0.59375 -0.609375 -1.515625 -0.609375q-0.921875 0 -1.515625 0.609375q-0.59375 0.609375 -0.59375 1.609375q0 1.0 0.59375 1.625q0.59375 0.609375 1.515625 0.609375zm9.424713 -5.875q1.359375 0 2.171875 0.796875q0.8125 0.78125 0.8125 2.328125l0 4.078125l-1.671875 0l0 -3.859375q0 -0.9375 -0.4375 -1.40625q-0.4375 -0.484375 -1.25 -0.484375q-0.921875 0 -1.453125 0.5625q-0.53125 0.546875 -0.53125 1.59375l0 3.59375l-1.671875 0l0 -7.125l1.578125 0l0 0.921875q0.421875 -0.484375 1.046875 -0.734375q0.625 -0.265625 1.40625 -0.265625zm12.25473 5.75l0 1.453125l-7.0 0l0 -9.328125l6.8125 0l0 1.453125l-5.078125 0l0 2.421875l4.5 0l0 1.421875l-4.5 0l0 2.578125l5.265625 0zm5.8048096 -5.75q1.359375 0 2.171875 0.796875q0.8125 0.78125 0.8125 2.328125l0 4.078125l-1.671875 0l0 -3.859375q0 -0.9375 -0.4375 -1.40625q-0.4375 -0.484375 -1.25 -0.484375q-0.921875 0 -1.453125 0.5625q-0.53125 0.546875 -0.53125 1.59375l0 3.59375l-1.671875 0l0 -7.125l1.578125 0l0 0.921875q0.421875 -0.484375 1.046875 -0.734375q0.625 -0.265625 1.40625 -0.265625zm11.621399 0.078125l-3.046875 7.125l-1.71875 0l-3.046875 -7.125l1.734375 0l2.203125 5.28125l2.28125 -5.28125l1.59375 0zm1.0473938 0l1.671875 0l0 7.125l-1.671875 0l0 -7.125zm0.84375 -1.171875q-0.453125 0 -0.765625 -0.28125q-0.296875 -0.28125 -0.296875 -0.71875q0 -0.421875 0.296875 -0.703125q0.3125 -0.296875 0.765625 -0.296875q0.453125 0 0.75 0.28125q0.3125 0.265625 0.3125 0.6875q0 0.4375 -0.296875 0.734375q-0.296875 0.296875 -0.765625 0.296875zm4.5861816 2.21875q0.734375 -1.125 2.546875 -1.125l0 1.59375q-0.21875 -0.046875 -0.390625 -0.046875q-0.96875 0 -1.515625 0.578125q-0.546875 0.5625 -0.546875 1.625l0 3.453125l-1.671875 0l0 -7.125l1.578125 0l0 1.046875zm7.089447 6.171875q-1.078125 0 -1.953125 -0.46875q-0.859375 -0.46875 -1.359375 -1.296875q-0.484375 -0.828125 -0.484375 -1.890625q0 -1.046875 0.484375 -1.875q0.5 -0.828125 1.359375 -1.296875q0.875 -0.46875 1.953125 -0.46875q1.09375 0 1.953125 0.46875q0.875 0.46875 1.359375 1.296875q0.484375 0.828125 0.484375 1.875q0 1.0625 -0.484375 1.890625q-0.484375 0.828125 -1.359375 1.296875q-0.859375 0.46875 -1.953125 0.46875zm0 -1.421875q0.921875 0 1.515625 -0.609375q0.59375 -0.625 0.59375 -1.625q0 -1.0 -0.59375 -1.609375q-0.59375 -0.609375 -1.515625 -0.609375q-0.921875 0 -1.515625 0.609375q-0.59375 0.609375 -0.59375 1.609375q0 1.0 0.59375 1.625q0.59375 0.609375 1.515625 0.609375zm9.424744 -5.875q1.359375 0 2.171875 0.796875q0.8125 0.78125 0.8125 2.328125l0 4.078125l-1.671875 0l0 -3.859375q0 -0.9375 -0.4375 -1.40625q-0.4375 -0.484375 -1.25 -0.484375q-0.921875 0 -1.453125 0.5625q-0.53125 0.546875 -0.53125 1.59375l0 3.59375l-1.671875 0l0 -7.125l1.578125 0l0 0.921875q0.421875 -0.484375 1.046875 -0.734375q0.625 -0.265625 1.40625 -0.265625zm14.082855 0q1.34375 0 2.125 0.78125q0.796875 0.78125 0.796875 2.34375l0 4.078125l-1.671875 0l0 -3.859375q0 -0.9375 -0.421875 -1.40625q-0.40625 -0.484375 -1.171875 -0.484375q-0.84375 0 -1.359375 0.5625q-0.5 0.546875 -0.5 1.578125l0 3.609375l-1.671875 0l0 -3.859375q0 -0.9375 -0.40625 -1.40625q-0.40625 -0.484375 -1.1875 -0.484375q-0.84375 0 -1.34375 0.546875q-0.5 0.546875 -0.5 1.59375l0 3.609375l-1.671875 0l0 -7.125l1.578125 0l0 0.921875q0.40625 -0.484375 1.0 -0.734375q0.609375 -0.265625 1.34375 -0.265625q0.796875 0 1.40625 0.3125q0.625 0.296875 0.984375 0.875q0.4375 -0.5625 1.125 -0.875q0.703125 -0.3125 1.546875 -0.3125zm11.80426 3.6875q0 0.171875 -0.03125 0.484375l-5.578125 0q0.140625 0.796875 0.765625 1.265625q0.625 0.453125 1.546875 0.453125q1.171875 0 1.921875 -0.78125l0.890625 1.03125q-0.46875 0.5625 -1.203125 0.859375q-0.734375 0.296875 -1.65625 0.296875q-1.171875 0 -2.0625 -0.46875q-0.890625 -0.46875 -1.390625 -1.296875q-0.484375 -0.828125 -0.484375 -1.890625q0 -1.03125 0.46875 -1.859375q0.484375 -0.84375 1.3125 -1.3125q0.84375 -0.46875 1.90625 -0.46875q1.03125 0 1.84375 0.46875q0.828125 0.453125 1.28125 1.296875q0.46875 0.828125 0.46875 1.921875zm-3.59375 -2.34375q-0.796875 0 -1.359375 0.46875q-0.546875 0.46875 -0.671875 1.265625l4.046875 0q-0.109375 -0.78125 -0.65625 -1.25q-0.546875 -0.484375 -1.359375 -0.484375zm9.227539 -1.34375q1.359375 0 2.171875 0.796875q0.8125 0.78125 0.8125 2.328125l0 4.078125l-1.671875 0l0 -3.859375q0 -0.9375 -0.4375 -1.40625q-0.4375 -0.484375 -1.25 -0.484375q-0.921875 0 -1.453125 0.5625q-0.53125 0.546875 -0.53125 1.59375l0 3.59375l-1.671875 0l0 -7.125l1.578125 0l0 0.921875q0.421875 -0.484375 1.046875 -0.734375q0.625 -0.265625 1.40625 -0.265625zm9.379761 6.8125q-0.296875 0.25 -0.71875 0.375q-0.421875 0.109375 -0.890625 0.109375q-1.171875 0 -1.8125 -0.609375q-0.640625 -0.625 -0.640625 -1.796875l0 -3.421875l-1.171875 0l0 -1.328125l1.171875 0l0 -1.625l1.671875 0l0 1.625l1.90625 0l0 1.328125l-1.90625 0l0 3.390625q0 0.515625 0.25 0.796875q0.25 0.265625 0.734375 0.265625q0.5625 0 0.9375 -0.296875l0.46875 1.1875z" fill-rule="nonzero"/><path fill="#000000" fill-opacity="0.0" d="m488.75507 196.60379l323.68506 0l0 46.04724l-323.68506 0z" fill-rule="evenodd"/><path fill="#f3f3f3" d="m547.2608 224.56804q-1.078125 0 -2.09375 -0.3125q-1.0 -0.3125 -1.578125 -0.8125l0.59375 -1.34375q0.578125 0.453125 1.40625 0.734375q0.84375 0.28125 1.671875 0.28125q1.046875 0 1.546875 -0.328125q0.515625 -0.328125 0.515625 -0.875q0 -0.40625 -0.28125 -0.65625q-0.28125 -0.265625 -0.71875 -0.40625q-0.4375 -0.15625 -1.203125 -0.34375q-1.0625 -0.25 -1.734375 -0.5q-0.65625 -0.25 -1.125 -0.78125q-0.46875 -0.546875 -0.46875 -1.46875q0 -0.78125 0.40625 -1.40625q0.421875 -0.640625 1.265625 -1.015625q0.859375 -0.375 2.078125 -0.375q0.859375 0 1.6875 0.21875q0.828125 0.21875 1.421875 0.609375l-0.546875 1.34375q-0.609375 -0.359375 -1.28125 -0.546875q-0.671875 -0.1875 -1.296875 -0.1875q-1.015625 0 -1.515625 0.359375q-0.5 0.34375 -0.5 0.921875q0 0.390625 0.28125 0.65625q0.28125 0.25 0.71875 0.390625q0.453125 0.140625 1.203125 0.328125q1.046875 0.25 1.703125 0.515625q0.671875 0.25 1.140625 0.78125q0.484375 0.53125 0.484375 1.4375q0 0.78125 -0.421875 1.40625q-0.421875 0.625 -1.28125 1.0q-0.84375 0.375 -2.078125 0.375zm9.617737 -0.53125q-0.296875 0.25 -0.71875 0.375q-0.421875 0.109375 -0.890625 0.109375q-1.171875 0 -1.8125 -0.609375q-0.640625 -0.625 -0.640625 -1.796875l0 -3.421875l-1.171875 0l0 -1.328125l1.171875 0l0 -1.625l1.671875 0l0 1.625l1.90625 0l0 1.328125l-1.90625 0l0 3.390625q0 0.515625 0.25 0.796875q0.25 0.265625 0.734375 0.265625q0.5625 0 0.9375 -0.296875l0.46875 1.1875zm2.947937 -5.6875q0.734375 -1.125 2.546875 -1.125l0 1.59375q-0.21875 -0.046875 -0.390625 -0.046875q-0.96875 0 -1.515625 0.578125q-0.546875 0.5625 -0.546875 1.625l0 3.453125l-1.671875 0l0 -7.125l1.578125 0l0 1.046875zm10.573853 2.5625q0 0.171875 -0.03125 0.484375l-5.578125 0q0.140625 0.796875 0.765625 1.265625q0.625 0.453125 1.546875 0.453125q1.171875 0 1.921875 -0.78125l0.890625 1.03125q-0.46875 0.5625 -1.203125 0.859375q-0.734375 0.296875 -1.65625 0.296875q-1.171875 0 -2.0625 -0.46875q-0.890625 -0.46875 -1.390625 -1.296875q-0.484375 -0.828125 -0.484375 -1.890625q0 -1.03125 0.46875 -1.859375q0.484375 -0.84375 1.3125 -1.3125q0.84375 -0.46875 1.90625 -0.46875q1.03125 0 1.84375 0.46875q0.828125 0.453125 1.28125 1.296875q0.46875 0.828125 0.46875 1.921875zm-3.59375 -2.34375q-0.796875 0 -1.359375 0.46875q-0.546875 0.46875 -0.671875 1.265625l4.046875 0q-0.109375 -0.78125 -0.65625 -1.25q-0.546875 -0.484375 -1.359375 -0.484375zm7.715088 -1.34375q1.578125 0 2.40625 0.765625q0.828125 0.75 0.828125 2.265625l0 4.171875l-1.5625 0l0 -0.859375q-0.3125 0.453125 -0.890625 0.703125q-0.5625 0.25 -1.359375 0.25q-0.796875 0 -1.40625 -0.265625q-0.59375 -0.28125 -0.921875 -0.765625q-0.3125 -0.484375 -0.3125 -1.109375q0 -0.953125 0.703125 -1.53125q0.71875 -0.578125 2.25 -0.578125l1.84375 0l0 -0.109375q0 -0.75 -0.453125 -1.140625q-0.453125 -0.40625 -1.328125 -0.40625q-0.59375 0 -1.171875 0.1875q-0.578125 0.1875 -0.984375 0.515625l-0.65625 -1.203125q0.5625 -0.4375 1.34375 -0.65625q0.796875 -0.234375 1.671875 -0.234375zm-0.234375 6.078125q0.640625 0 1.125 -0.28125q0.484375 -0.28125 0.6875 -0.8125l0 -0.828125l-1.71875 0q-1.453125 0 -1.453125 0.9375q0 0.453125 0.359375 0.71875q0.375 0.265625 1.0 0.265625zm14.590149 -6.078125q1.34375 0 2.125 0.78125q0.796875 0.78125 0.796875 2.34375l0 4.078125l-1.671875 0l0 -3.859375q0 -0.9375 -0.421875 -1.40625q-0.40625 -0.484375 -1.171875 -0.484375q-0.84375 0 -1.359375 0.5625q-0.5 0.546875 -0.5 1.578125l0 3.609375l-1.671875 0l0 -3.859375q0 -0.9375 -0.40625 -1.40625q-0.40625 -0.484375 -1.1875 -0.484375q-0.84375 0 -1.34375 0.546875q-0.5 0.546875 -0.5 1.59375l0 3.609375l-1.671875 0l0 -7.125l1.578125 0l0 0.921875q0.40625 -0.484375 1.0 -0.734375q0.609375 -0.265625 1.34375 -0.265625q0.796875 0 1.40625 0.3125q0.625 0.296875 0.984375 0.875q0.4375 -0.5625 1.125 -0.875q0.703125 -0.3125 1.546875 -0.3125zm7.253235 7.296875q-0.875 0 -1.703125 -0.21875q-0.828125 -0.234375 -1.3125 -0.578125l0.640625 -1.265625q0.484375 0.3125 1.15625 0.515625q0.671875 0.1875 1.328125 0.1875q1.484375 0 1.484375 -0.78125q0 -0.375 -0.390625 -0.515625q-0.375 -0.15625 -1.203125 -0.296875q-0.890625 -0.125 -1.4375 -0.296875q-0.546875 -0.171875 -0.953125 -0.609375q-0.40625 -0.4375 -0.40625 -1.203125q0 -1.015625 0.84375 -1.625q0.84375 -0.609375 2.28125 -0.609375q0.734375 0 1.46875 0.171875q0.734375 0.171875 1.203125 0.453125l-0.640625 1.265625q-0.90625 -0.53125 -2.046875 -0.53125q-0.734375 0 -1.109375 0.21875q-0.375 0.21875 -0.375 0.578125q0 0.390625 0.40625 0.5625q0.40625 0.171875 1.25 0.3125q0.859375 0.140625 1.40625 0.3125q0.546875 0.171875 0.9375 0.59375q0.390625 0.40625 0.390625 1.15625q0 1.0 -0.875 1.609375q-0.859375 0.59375 -2.34375 0.59375zm11.817078 -1.546875l0 1.453125l-7.0 0l0 -9.328125l6.8125 0l0 1.453125l-5.078125 0l0 2.421875l4.5 0l0 1.421875l-4.5 0l0 2.578125l5.265625 0zm6.1714478 1.453125l-1.828125 -2.46875l-1.84375 2.46875l-1.828125 0l2.765625 -3.609375l-2.65625 -3.515625l1.859375 0l1.75 2.34375l1.734375 -2.34375l1.8125 0l-2.671875 3.484375l2.78125 3.640625l-1.875 0zm9.553223 -3.515625q0 0.171875 -0.03125 0.484375l-5.578125 0q0.140625 0.796875 0.765625 1.265625q0.625 0.453125 1.546875 0.453125q1.171875 0 1.921875 -0.78125l0.890625 1.03125q-0.46875 0.5625 -1.203125 0.859375q-0.734375 0.296875 -1.65625 0.296875q-1.171875 0 -2.0625 -0.46875q-0.890625 -0.46875 -1.390625 -1.296875q-0.484375 -0.828125 -0.484375 -1.890625q0 -1.03125 0.46875 -1.859375q0.484375 -0.84375 1.3125 -1.3125q0.84375 -0.46875 1.90625 -0.46875q1.03125 0 1.84375 0.46875q0.828125 0.453125 1.28125 1.296875q0.46875 0.828125 0.46875 1.921875zm-3.59375 -2.34375q-0.796875 0 -1.359375 0.46875q-0.546875 0.46875 -0.671875 1.265625l4.046875 0q-0.109375 -0.78125 -0.65625 -1.25q-0.546875 -0.484375 -1.359375 -0.484375zm8.461975 5.953125q-1.109375 0 -1.984375 -0.46875q-0.875 -0.46875 -1.375 -1.296875q-0.5 -0.828125 -0.5 -1.890625q0 -1.046875 0.5 -1.875q0.5 -0.828125 1.359375 -1.296875q0.875 -0.46875 2.0 -0.46875q1.046875 0 1.84375 0.4375q0.796875 0.421875 1.1875 1.21875l-1.265625 0.75q-0.3125 -0.5 -0.78125 -0.734375q-0.453125 -0.25 -1.0 -0.25q-0.9375 0 -1.546875 0.609375q-0.609375 0.59375 -0.609375 1.609375q0 1.015625 0.609375 1.625q0.609375 0.609375 1.546875 0.609375q0.546875 0 1.0 -0.25q0.46875 -0.25 0.78125 -0.734375l1.265625 0.734375q-0.40625 0.8125 -1.203125 1.25q-0.796875 0.421875 -1.828125 0.421875zm11.368591 -7.21875l0 7.125l-1.59375 0l0 -0.90625q-0.390625 0.484375 -1.0 0.75q-0.59375 0.25 -1.28125 0.25q-1.4375 0 -2.25 -0.796875q-0.8125 -0.796875 -0.8125 -2.34375l0 -4.078125l1.65625 0l0 3.84375q0 0.96875 0.4375 1.4375q0.4375 0.46875 1.234375 0.46875q0.890625 0 1.40625 -0.546875q0.53125 -0.5625 0.53125 -1.59375l0 -3.609375l1.671875 0zm6.467041 6.734375q-0.296875 0.25 -0.71875 0.375q-0.421875 0.109375 -0.890625 0.109375q-1.171875 0 -1.8125 -0.609375q-0.640625 -0.625 -0.640625 -1.796875l0 -3.421875l-1.171875 0l0 -1.328125l1.171875 0l0 -1.625l1.671875 0l0 1.625l1.90625 0l0 1.328125l-1.90625 0l0 3.390625q0 0.515625 0.25 0.796875q0.25 0.265625 0.734375 0.265625q0.5625 0 0.9375 -0.296875l0.46875 1.1875zm1.369873 -6.734375l1.671875 0l0 7.125l-1.671875 0l0 -7.125zm0.84375 -1.171875q-0.453125 0 -0.765625 -0.28125q-0.296875 -0.28125 -0.296875 -0.71875q0 -0.421875 0.296875 -0.703125q0.3125 -0.296875 0.765625 -0.296875q0.453125 0 0.75 0.28125q0.3125 0.265625 0.3125 0.6875q0 0.4375 -0.296875 0.734375q-0.296875 0.296875 -0.765625 0.296875zm6.2111816 8.390625q-1.078125 0 -1.953125 -0.46875q-0.859375 -0.46875 -1.359375 -1.296875q-0.484375 -0.828125 -0.484375 -1.890625q0 -1.046875 0.484375 -1.875q0.5 -0.828125 1.359375 -1.296875q0.875 -0.46875 1.953125 -0.46875q1.09375 0 1.953125 0.46875q0.875 0.46875 1.359375 1.296875q0.484375 0.828125 0.484375 1.875q0 1.0625 -0.484375 1.890625q-0.484375 0.828125 -1.359375 1.296875q-0.859375 0.46875 -1.953125 0.46875zm0 -1.421875q0.921875 0 1.515625 -0.609375q0.59375 -0.625 0.59375 -1.625q0 -1.0 -0.59375 -1.609375q-0.59375 -0.609375 -1.515625 -0.609375q-0.921875 0 -1.515625 0.609375q-0.59375 0.609375 -0.59375 1.609375q0 1.0 0.59375 1.625q0.59375 0.609375 1.515625 0.609375zm9.424744 -5.875q1.359375 0 2.171875 0.796875q0.8125 0.78125 0.8125 2.328125l0 4.078125l-1.671875 0l0 -3.859375q0 -0.9375 -0.4375 -1.40625q-0.4375 -0.484375 -1.25 -0.484375q-0.921875 0 -1.453125 0.5625q-0.53125 0.546875 -0.53125 1.59375l0 3.59375l-1.671875 0l0 -7.125l1.578125 0l0 0.921875q0.421875 -0.484375 1.046875 -0.734375q0.625 -0.265625 1.40625 -0.265625zm12.2547 5.75l0 1.453125l-7.0 0l0 -9.328125l6.8125 0l0 1.453125l-5.078125 0l0 2.421875l4.5 0l0 1.421875l-4.5 0l0 2.578125l5.265625 0zm5.8048096 -5.75q1.359375 0 2.171875 0.796875q0.8125 0.78125 0.8125 2.328125l0 4.078125l-1.671875 0l0 -3.859375q0 -0.9375 -0.4375 -1.40625q-0.4375 -0.484375 -1.25 -0.484375q-0.921875 0 -1.453125 0.5625q-0.53125 0.546875 -0.53125 1.59375l0 3.59375l-1.671875 0l0 -7.125l1.578125 0l0 0.921875q0.421875 -0.484375 1.046875 -0.734375q0.625 -0.265625 1.40625 -0.265625zm11.621399 0.078125l-3.046875 7.125l-1.71875 0l-3.046875 -7.125l1.734375 0l2.203125 5.28125l2.28125 -5.28125l1.59375 0zm1.0473633 0l1.671875 0l0 7.125l-1.671875 0l0 -7.125zm0.84375 -1.171875q-0.453125 0 -0.765625 -0.28125q-0.296875 -0.28125 -0.296875 -0.71875q0 -0.421875 0.296875 -0.703125q0.3125 -0.296875 0.765625 -0.296875q0.453125 0 0.75 0.28125q0.3125 0.265625 0.3125 0.6875q0 0.4375 -0.296875 0.734375q-0.296875 0.296875 -0.765625 0.296875zm4.5861816 2.21875q0.734375 -1.125 2.546875 -1.125l0 1.59375q-0.21875 -0.046875 -0.390625 -0.046875q-0.96875 0 -1.515625 0.578125q-0.546875 0.5625 -0.546875 1.625l0 3.453125l-1.671875 0l0 -7.125l1.578125 0l0 1.046875zm7.0894775 6.171875q-1.078125 0 -1.953125 -0.46875q-0.859375 -0.46875 -1.359375 -1.296875q-0.484375 -0.828125 -0.484375 -1.890625q0 -1.046875 0.484375 -1.875q0.5 -0.828125 1.359375 -1.296875q0.875 -0.46875 1.953125 -0.46875q1.09375 0 1.953125 0.46875q0.875 0.46875 1.359375 1.296875q0.484375 0.828125 0.484375 1.875q0 1.0625 -0.484375 1.890625q-0.484375 0.828125 -1.359375 1.296875q-0.859375 0.46875 -1.953125 0.46875zm0 -1.421875q0.921875 0 1.515625 -0.609375q0.59375 -0.625 0.59375 -1.625q0 -1.0 -0.59375 -1.609375q-0.59375 -0.609375 -1.515625 -0.609375q-0.921875 0 -1.515625 0.609375q-0.59375 0.609375 -0.59375 1.609375q0 1.0 0.59375 1.625q0.59375 0.609375 1.515625 0.609375zm9.424744 -5.875q1.359375 0 2.171875 0.796875q0.8125 0.78125 0.8125 2.328125l0 4.078125l-1.671875 0l0 -3.859375q0 -0.9375 -0.4375 -1.40625q-0.4375 -0.484375 -1.25 -0.484375q-0.921875 0 -1.453125 0.5625q-0.53125 0.546875 -0.53125 1.59375l0 3.59375l-1.671875 0l0 -7.125l1.578125 0l0 0.921875q0.421875 -0.484375 1.046875 -0.734375q0.625 -0.265625 1.40625 -0.265625zm14.082825 0q1.34375 0 2.125 0.78125q0.796875 0.78125 0.796875 2.34375l0 4.078125l-1.671875 0l0 -3.859375q0 -0.9375 -0.421875 -1.40625q-0.40625 -0.484375 -1.171875 -0.484375q-0.84375 0 -1.359375 0.5625q-0.5 0.546875 -0.5 1.578125l0 3.609375l-1.671875 0l0 -3.859375q0 -0.9375 -0.40625 -1.40625q-0.40625 -0.484375 -1.1875 -0.484375q-0.84375 0 -1.34375 0.546875q-0.5 0.546875 -0.5 1.59375l0 3.609375l-1.671875 0l0 -7.125l1.578125 0l0 0.921875q0.40625 -0.484375 1.0 -0.734375q0.609375 -0.265625 1.34375 -0.265625q0.796875 0 1.40625 0.3125q0.625 0.296875 0.984375 0.875q0.4375 -0.5625 1.125 -0.875q0.703125 -0.3125 1.546875 -0.3125zm11.80426 3.6875q0 0.171875 -0.03125 0.484375l-5.578125 0q0.140625 0.796875 0.765625 1.265625q0.625 0.453125 1.546875 0.453125q1.171875 0 1.921875 -0.78125l0.890625 1.03125q-0.46875 0.5625 -1.203125 0.859375q-0.734375 0.296875 -1.65625 0.296875q-1.171875 0 -2.0625 -0.46875q-0.890625 -0.46875 -1.390625 -1.296875q-0.484375 -0.828125 -0.484375 -1.890625q0 -1.03125 0.46875 -1.859375q0.484375 -0.84375 1.3125 -1.3125q0.84375 -0.46875 1.90625 -0.46875q1.03125 0 1.84375 0.46875q0.828125 0.453125 1.28125 1.296875q0.46875 0.828125 0.46875 1.921875zm-3.59375 -2.34375q-0.796875 0 -1.359375 0.46875q-0.546875 0.46875 -0.671875 1.265625l4.046875 0q-0.109375 -0.78125 -0.65625 -1.25q-0.546875 -0.484375 -1.359375 -0.484375zm9.2276 -1.34375q1.359375 0 2.171875 0.796875q0.8125 0.78125 0.8125 2.328125l0 4.078125l-1.671875 0l0 -3.859375q0 -0.9375 -0.4375 -1.40625q-0.4375 -0.484375 -1.25 -0.484375q-0.921875 0 -1.453125 0.5625q-0.53125 0.546875 -0.53125 1.59375l0 3.59375l-1.671875 0l0 -7.125l1.578125 0l0 0.921875q0.421875 -0.484375 1.046875 -0.734375q0.625 -0.265625 1.40625 -0.265625zm9.3797 6.8125q-0.296875 0.25 -0.71875 0.375q-0.421875 0.109375 -0.890625 0.109375q-1.171875 0 -1.8125 -0.609375q-0.640625 -0.625 -0.640625 -1.796875l0 -3.421875l-1.171875 0l0 -1.328125l1.171875 0l0 -1.625l1.671875 0l0 1.625l1.90625 0l0 1.328125l-1.90625 0l0 3.390625q0 0.515625 0.25 0.796875q0.25 0.265625 0.734375 0.265625q0.5625 0 0.9375 -0.296875l0.46875 1.1875z" fill-rule="nonzero"/><path fill="#f8f9fa" d="m488.75507 235.72478l328.40942 0l0 86.23622l-328.40942 0z" fill-rule="evenodd"/><path stroke="#2880c1" stroke-width="3.0" stroke-linejoin="round" stroke-linecap="butt" d="m488.75507 235.72478l328.40942 0l0 86.23622l-328.40942 0z" fill-rule="evenodd"/><path fill="#f8f9fa" d="m136.78467 255.81465l154.70865 0l0 46.047256l-154.70865 0z" fill-rule="evenodd"/><path stroke="#502198" stroke-width="1.0" stroke-linejoin="round" stroke-linecap="butt" d="m136.78467 255.81465l154.70865 0l0 46.047256l-154.70865 0z" fill-rule="evenodd"/><path fill="#000000" d="m172.26364 279.24765l-1.90625 1.9375l0 2.453125l-0.984375 0l0 -9.328125l0.984375 0l0 5.640625l5.484375 -5.640625l1.125 0l-4.03125 4.21875l4.3125 5.109375l-1.171875 0l-3.8125 -4.390625zm8.648972 -2.671875q1.375 0 2.109375 0.6875q0.734375 0.6875 0.734375 2.03125l0 4.34375l-0.90625 0l0 -1.09375q-0.3125 0.546875 -0.9375 0.859375q-0.625 0.296875 -1.46875 0.296875q-1.171875 0 -1.875 -0.546875q-0.6875 -0.5625 -0.6875 -1.484375q0 -0.890625 0.640625 -1.4375q0.65625 -0.546875 2.0625 -0.546875l2.234375 0l0 -0.4375q0 -0.90625 -0.515625 -1.375q-0.5 -0.46875 -1.484375 -0.46875q-0.65625 0 -1.28125 0.21875q-0.609375 0.21875 -1.046875 0.609375l-0.421875 -0.71875q0.53125 -0.453125 1.28125 -0.6875q0.75 -0.25 1.5625 -0.25zm-0.328125 6.375q0.796875 0 1.375 -0.359375q0.578125 -0.359375 0.859375 -1.0625l0 -1.140625l-2.203125 0q-1.796875 0 -1.796875 1.25q0 0.609375 0.453125 0.96875q0.46875 0.34375 1.3125 0.34375zm8.066696 -8.46875q-0.609375 0 -0.921875 0.34375q-0.3125 0.328125 -0.3125 0.96875l0 0.828125l2.15625 0l0 0.8125l-2.140625 0l0 6.203125l-0.9375 0l0 -6.203125l-1.25 0l0 -0.8125l1.25 0l0 -0.859375q0 -0.96875 0.546875 -1.515625q0.546875 -0.5625 1.5625 -0.5625q0.40625 0 0.78125 0.109375q0.375 0.109375 0.625 0.328125l-0.328125 0.703125q-0.40625 -0.34375 -1.03125 -0.34375zm4.799469 5.640625l-1.65625 1.515625l0 2.0l-0.953125 0l0 -9.890625l0.953125 0l0 6.703125l4.1875 -3.828125l1.171875 0l-3.0 2.875l3.28125 4.140625l-1.15625 0l-2.828125 -3.515625zm7.7205963 -3.546875q1.375 0 2.109375 0.6875q0.734375 0.6875 0.734375 2.03125l0 4.34375l-0.90625 0l0 -1.09375q-0.3125 0.546875 -0.9375 0.859375q-0.625 0.296875 -1.46875 0.296875q-1.171875 0 -1.875 -0.546875q-0.6875 -0.5625 -0.6875 -1.484375q0 -0.890625 0.640625 -1.4375q0.65625 -0.546875 2.0625 -0.546875l2.234375 0l0 -0.4375q0 -0.90625 -0.515625 -1.375q-0.5 -0.46875 -1.484375 -0.46875q-0.65625 0 -1.28125 0.21875q-0.609375 0.21875 -1.046875 0.609375l-0.421875 -0.71875q0.53125 -0.453125 1.28125 -0.6875q0.75 -0.25 1.5625 -0.25zm-0.328125 6.375q0.796875 0 1.375 -0.359375q0.578125 -0.359375 0.859375 -1.0625l0 -1.140625l-2.203125 0q-1.796875 0 -1.796875 1.25q0 0.609375 0.453125 0.96875q0.46875 0.34375 1.3125 0.34375zm8.519821 0.765625q-1.046875 0 -2.0 -0.328125q-0.953125 -0.34375 -1.46875 -0.890625l0.390625 -0.75q0.5 0.5 1.34375 0.8125q0.84375 0.3125 1.734375 0.3125q1.25 0 1.875 -0.453125q0.625 -0.453125 0.625 -1.1875q0 -0.5625 -0.34375 -0.890625q-0.328125 -0.34375 -0.828125 -0.515625q-0.484375 -0.1875 -1.375 -0.40625q-1.046875 -0.265625 -1.671875 -0.5q-0.625 -0.25 -1.078125 -0.75q-0.4375 -0.515625 -0.4375 -1.375q0 -0.71875 0.359375 -1.296875q0.375 -0.578125 1.140625 -0.921875q0.78125 -0.34375 1.9375 -0.34375q0.796875 0 1.5625 0.21875q0.765625 0.21875 1.328125 0.609375l-0.34375 0.78125q-0.578125 -0.390625 -1.25 -0.578125q-0.65625 -0.1875 -1.296875 -0.1875q-1.234375 0 -1.859375 0.46875q-0.609375 0.46875 -0.609375 1.21875q0 0.5625 0.328125 0.90625q0.34375 0.328125 0.859375 0.515625q0.515625 0.171875 1.375 0.390625q1.03125 0.25 1.65625 0.5q0.640625 0.25 1.078125 0.75q0.453125 0.5 0.453125 1.34375q0 0.703125 -0.390625 1.296875q-0.375 0.578125 -1.171875 0.921875q-0.78125 0.328125 -1.921875 0.328125zm9.118637 -0.5q-0.265625 0.234375 -0.671875 0.359375q-0.390625 0.125 -0.8125 0.125q-0.984375 0 -1.515625 -0.53125q-0.53125 -0.53125 -0.53125 -1.5l0 -4.234375l-1.25 0l0 -0.8125l1.25 0l0 -1.53125l0.9375 0l0 1.53125l2.140625 0l0 0.8125l-2.140625 0l0 4.171875q0 0.625 0.3125 0.953125q0.3125 0.328125 0.90625 0.328125q0.296875 0 0.5625 -0.09375q0.28125 -0.09375 0.46875 -0.265625l0.34375 0.6875zm2.6143188 -5.21875q0.34375 -0.703125 1.0 -1.0625q0.65625 -0.359375 1.625 -0.359375l0 0.921875l-0.21875 -0.015625q-1.109375 0 -1.734375 0.6875q-0.625 0.671875 -0.625 1.890625l0 3.578125l-0.953125 0l0 -7.015625l0.90625 0l0 1.375zm10.374344 2.421875l-5.859375 0q0.078125 1.09375 0.828125 1.78125q0.765625 0.671875 1.921875 0.671875q0.65625 0 1.203125 -0.234375q0.546875 -0.234375 0.953125 -0.6875l0.53125 0.609375q-0.46875 0.5625 -1.171875 0.859375q-0.703125 0.28125 -1.53125 0.28125q-1.078125 0 -1.921875 -0.453125q-0.828125 -0.46875 -1.296875 -1.28125q-0.46875 -0.8125 -0.46875 -1.828125q0 -1.03125 0.4375 -1.84375q0.453125 -0.8125 1.234375 -1.265625q0.78125 -0.453125 1.75 -0.453125q0.984375 0 1.75 0.453125q0.78125 0.453125 1.21875 1.265625q0.4375 0.796875 0.4375 1.84375l-0.015625 0.28125zm-3.390625 -3.03125q-1.0 0 -1.6875 0.65625q-0.6875 0.640625 -0.78125 1.671875l4.96875 0q-0.09375 -1.03125 -0.78125 -1.671875q-0.6875 -0.65625 -1.71875 -0.65625zm7.5845337 -0.8125q1.375 0 2.109375 0.6875q0.734375 0.6875 0.734375 2.03125l0 4.34375l-0.90625 0l0 -1.09375q-0.3125 0.546875 -0.9375 0.859375q-0.625 0.296875 -1.46875 0.296875q-1.171875 0 -1.875 -0.546875q-0.6875 -0.5625 -0.6875 -1.484375q0 -0.890625 0.640625 -1.4375q0.65625 -0.546875 2.0625 -0.546875l2.234375 0l0 -0.4375q0 -0.90625 -0.515625 -1.375q-0.5 -0.46875 -1.484375 -0.46875q-0.65625 0 -1.28125 0.21875q-0.609375 0.21875 -1.046875 0.609375l-0.421875 -0.71875q0.53125 -0.453125 1.28125 -0.6875q0.75 -0.25 1.5625 -0.25zm-0.328125 6.375q0.796875 0 1.375 -0.359375q0.578125 -0.359375 0.859375 -1.0625l0 -1.140625l-2.203125 0q-1.796875 0 -1.796875 1.25q0 0.609375 0.453125 0.96875q0.46875 0.34375 1.3125 0.34375zm14.488571 -6.375q1.3125 0 2.0625 0.765625q0.765625 0.75 0.765625 2.234375l0 4.0625l-0.953125 0l0 -3.96875q0 -1.09375 -0.53125 -1.65625q-0.515625 -0.578125 -1.484375 -0.578125q-1.078125 0 -1.71875 0.671875q-0.625 0.671875 -0.625 1.859375l0 3.671875l-0.9375 0l0 -3.96875q0 -1.09375 -0.53125 -1.65625q-0.53125 -0.578125 -1.5 -0.578125q-1.078125 0 -1.71875 0.671875q-0.625 0.671875 -0.625 1.859375l0 3.671875l-0.953125 0l0 -7.015625l0.90625 0l0 1.28125q0.375 -0.640625 1.046875 -0.984375q0.671875 -0.34375 1.53125 -0.34375q0.875 0 1.515625 0.375q0.65625 0.375 0.984375 1.109375q0.375 -0.703125 1.09375 -1.09375q0.734375 -0.390625 1.671875 -0.390625zm7.2816925 7.125q-0.859375 0 -1.6406097 -0.234375q-0.78125 -0.25 -1.21875 -0.625l0.421875 -0.75q0.453125 0.34375 1.109375 0.5625q0.67185974 0.21875 1.3906097 0.21875q0.953125 0 1.40625 -0.296875q0.46875 -0.296875 0.46875 -0.84375q0 -0.390625 -0.25 -0.609375q-0.25 -0.21875 -0.640625 -0.328125q-0.390625 -0.109375 -1.03125 -0.21875q-0.84375 -0.15625 -1.3749847 -0.328125q-0.515625 -0.171875 -0.890625 -0.5625q-0.359375 -0.40625 -0.359375 -1.109375q0 -0.875 0.734375 -1.4375q0.734375 -0.5625 2.0468597 -0.5625q0.671875 0 1.34375 0.1875q0.6875 0.171875 1.125 0.46875l-0.40625 0.75q-0.859375 -0.59375 -2.0625 -0.59375q-0.90625 0 -1.3749847 0.328125q-0.453125 0.3125 -0.453125 0.828125q0 0.40625 0.25 0.640625q0.265625 0.234375 0.65623474 0.359375q0.390625 0.109375 1.0625 0.234375q0.84375 0.15625 1.34375 0.3125q0.515625 0.15625 0.875 0.546875q0.359375 0.390625 0.359375 1.0625q0 0.921875 -0.765625 1.46875q-0.765625 0.53125 -2.125 0.53125z" fill-rule="nonzero"/><path fill="#f8f9fa" d="m297.46774 255.81465l154.70865 0l0 46.047256l-154.70865 0z" fill-rule="evenodd"/><path stroke="#502198" stroke-width="1.0" stroke-linejoin="round" stroke-linecap="butt" d="m297.46774 255.81465l154.70865 0l0 46.047256l-154.70865 0z" fill-rule="evenodd"/><path fill="#000000" d="m332.94672 279.24765l-1.90625 1.9375l0 2.453125l-0.984375 0l0 -9.328125l0.984375 0l0 5.640625l5.484375 -5.640625l1.125 0l-4.03125 4.21875l4.3125 5.109375l-1.171875 0l-3.8125 -4.390625zm8.648956 -2.671875q1.375 0 2.109375 0.6875q0.734375 0.6875 0.734375 2.03125l0 4.34375l-0.90625 0l0 -1.09375q-0.3125 0.546875 -0.9375 0.859375q-0.625 0.296875 -1.46875 0.296875q-1.171875 0 -1.875 -0.546875q-0.6875 -0.5625 -0.6875 -1.484375q0 -0.890625 0.640625 -1.4375q0.65625 -0.546875 2.0625 -0.546875l2.234375 0l0 -0.4375q0 -0.90625 -0.515625 -1.375q-0.5 -0.46875 -1.484375 -0.46875q-0.65625 0 -1.28125 0.21875q-0.609375 0.21875 -1.046875 0.609375l-0.421875 -0.71875q0.53125 -0.453125 1.28125 -0.6875q0.75 -0.25 1.5625 -0.25zm-0.328125 6.375q0.796875 0 1.375 -0.359375q0.578125 -0.359375 0.859375 -1.0625l0 -1.140625l-2.203125 0q-1.796875 0 -1.796875 1.25q0 0.609375 0.453125 0.96875q0.46875 0.34375 1.3125 0.34375zm8.066711 -8.46875q-0.609375 0 -0.921875 0.34375q-0.3125 0.328125 -0.3125 0.96875l0 0.828125l2.15625 0l0 0.8125l-2.140625 0l0 6.203125l-0.9375 0l0 -6.203125l-1.25 0l0 -0.8125l1.25 0l0 -0.859375q0 -0.96875 0.546875 -1.515625q0.546875 -0.5625 1.5625 -0.5625q0.40625 0 0.78125 0.109375q0.375 0.109375 0.625 0.328125l-0.328125 0.703125q-0.40625 -0.34375 -1.03125 -0.34375zm4.799469 5.640625l-1.65625 1.515625l0 2.0l-0.953125 0l0 -9.890625l0.953125 0l0 6.703125l4.1875 -3.828125l1.171875 0l-3.0 2.875l3.28125 4.140625l-1.15625 0l-2.828125 -3.515625zm7.720581 -3.546875q1.375 0 2.109375 0.6875q0.734375 0.6875 0.734375 2.03125l0 4.34375l-0.90625 0l0 -1.09375q-0.3125 0.546875 -0.9375 0.859375q-0.625 0.296875 -1.46875 0.296875q-1.171875 0 -1.875 -0.546875q-0.6875 -0.5625 -0.6875 -1.484375q0 -0.890625 0.640625 -1.4375q0.65625 -0.546875 2.0625 -0.546875l2.234375 0l0 -0.4375q0 -0.90625 -0.515625 -1.375q-0.5 -0.46875 -1.484375 -0.46875q-0.65625 0 -1.28125 0.21875q-0.609375 0.21875 -1.046875 0.609375l-0.421875 -0.71875q0.53125 -0.453125 1.28125 -0.6875q0.75 -0.25 1.5625 -0.25zm-0.328125 6.375q0.796875 0 1.375 -0.359375q0.578125 -0.359375 0.859375 -1.0625l0 -1.140625l-2.203125 0q-1.796875 0 -1.796875 1.25q0 0.609375 0.453125 0.96875q0.46875 0.34375 1.3125 0.34375zm8.519836 0.765625q-1.046875 0 -2.0 -0.328125q-0.953125 -0.34375 -1.46875 -0.890625l0.390625 -0.75q0.5 0.5 1.34375 0.8125q0.84375 0.3125 1.734375 0.3125q1.25 0 1.875 -0.453125q0.625 -0.453125 0.625 -1.1875q0 -0.5625 -0.34375 -0.890625q-0.328125 -0.34375 -0.828125 -0.515625q-0.484375 -0.1875 -1.375 -0.40625q-1.046875 -0.265625 -1.671875 -0.5q-0.625 -0.25 -1.078125 -0.75q-0.4375 -0.515625 -0.4375 -1.375q0 -0.71875 0.359375 -1.296875q0.375 -0.578125 1.140625 -0.921875q0.78125 -0.34375 1.9375 -0.34375q0.796875 0 1.5625 0.21875q0.765625 0.21875 1.328125 0.609375l-0.34375 0.78125q-0.578125 -0.390625 -1.25 -0.578125q-0.65625 -0.1875 -1.296875 -0.1875q-1.234375 0 -1.859375 0.46875q-0.609375 0.46875 -0.609375 1.21875q0 0.5625 0.328125 0.90625q0.34375 0.328125 0.859375 0.515625q0.515625 0.171875 1.375 0.390625q1.03125 0.25 1.65625 0.5q0.640625 0.25 1.078125 0.75q0.453125 0.5 0.453125 1.34375q0 0.703125 -0.390625 1.296875q-0.375 0.578125 -1.171875 0.921875q-0.78125 0.328125 -1.921875 0.328125zm9.118622 -0.5q-0.265625 0.234375 -0.671875 0.359375q-0.390625 0.125 -0.8125 0.125q-0.984375 0 -1.515625 -0.53125q-0.53125 -0.53125 -0.53125 -1.5l0 -4.234375l-1.25 0l0 -0.8125l1.25 0l0 -1.53125l0.9375 0l0 1.53125l2.140625 0l0 0.8125l-2.140625 0l0 4.171875q0 0.625 0.3125 0.953125q0.3125 0.328125 0.90625 0.328125q0.296875 0 0.5625 -0.09375q0.28125 -0.09375 0.46875 -0.265625l0.34375 0.6875zm2.6143188 -5.21875q0.34375 -0.703125 1.0 -1.0625q0.65625 -0.359375 1.625 -0.359375l0 0.921875l-0.21875 -0.015625q-1.109375 0 -1.734375 0.6875q-0.625 0.671875 -0.625 1.890625l0 3.578125l-0.953125 0l0 -7.015625l0.90625 0l0 1.375zm10.374359 2.421875l-5.859375 0q0.078125 1.09375 0.828125 1.78125q0.765625 0.671875 1.921875 0.671875q0.65625 0 1.203125 -0.234375q0.546875 -0.234375 0.953125 -0.6875l0.53125 0.609375q-0.46875 0.5625 -1.171875 0.859375q-0.703125 0.28125 -1.53125 0.28125q-1.078125 0 -1.921875 -0.453125q-0.828125 -0.46875 -1.296875 -1.28125q-0.46875 -0.8125 -0.46875 -1.828125q0 -1.03125 0.4375 -1.84375q0.453125 -0.8125 1.234375 -1.265625q0.78125 -0.453125 1.75 -0.453125q0.984375 0 1.75 0.453125q0.78125 0.453125 1.21875 1.265625q0.4375 0.796875 0.4375 1.84375l-0.015625 0.28125zm-3.390625 -3.03125q-1.0 0 -1.6875 0.65625q-0.6875 0.640625 -0.78125 1.671875l4.96875 0q-0.09375 -1.03125 -0.78125 -1.671875q-0.6875 -0.65625 -1.71875 -0.65625zm7.5845337 -0.8125q1.375 0 2.109375 0.6875q0.734375 0.6875 0.734375 2.03125l0 4.34375l-0.90625 0l0 -1.09375q-0.3125 0.546875 -0.9375 0.859375q-0.625 0.296875 -1.46875 0.296875q-1.171875 0 -1.875 -0.546875q-0.6875 -0.5625 -0.6875 -1.484375q0 -0.890625 0.640625 -1.4375q0.65625 -0.546875 2.0625 -0.546875l2.234375 0l0 -0.4375q0 -0.90625 -0.515625 -1.375q-0.5 -0.46875 -1.484375 -0.46875q-0.65625 0 -1.28125 0.21875q-0.609375 0.21875 -1.046875 0.609375l-0.421875 -0.71875q0.53125 -0.453125 1.28125 -0.6875q0.75 -0.25 1.5625 -0.25zm-0.328125 6.375q0.796875 0 1.375 -0.359375q0.578125 -0.359375 0.859375 -1.0625l0 -1.140625l-2.203125 0q-1.796875 0 -1.796875 1.25q0 0.609375 0.453125 0.96875q0.46875 0.34375 1.3125 0.34375zm14.488556 -6.375q1.3125 0 2.0625 0.765625q0.765625 0.75 0.765625 2.234375l0 4.0625l-0.953125 0l0 -3.96875q0 -1.09375 -0.53125 -1.65625q-0.515625 -0.578125 -1.484375 -0.578125q-1.078125 0 -1.71875 0.671875q-0.625 0.671875 -0.625 1.859375l0 3.671875l-0.9375 0l0 -3.96875q0 -1.09375 -0.53125 -1.65625q-0.53125 -0.578125 -1.5 -0.578125q-1.078125 0 -1.71875 0.671875q-0.625 0.671875 -0.625 1.859375l0 3.671875l-0.953125 0l0 -7.015625l0.90625 0l0 1.28125q0.375 -0.640625 1.046875 -0.984375q0.671875 -0.34375 1.53125 -0.34375q0.875 0 1.515625 0.375q0.65625 0.375 0.984375 1.109375q0.375 -0.703125 1.09375 -1.09375q0.734375 -0.390625 1.671875 -0.390625zm7.281708 7.125q-0.859375 0 -1.640625 -0.234375q-0.78125 -0.25 -1.21875 -0.625l0.421875 -0.75q0.453125 0.34375 1.109375 0.5625q0.671875 0.21875 1.390625 0.21875q0.953125 0 1.40625 -0.296875q0.46875 -0.296875 0.46875 -0.84375q0 -0.390625 -0.25 -0.609375q-0.25 -0.21875 -0.640625 -0.328125q-0.390625 -0.109375 -1.03125 -0.21875q-0.84375 -0.15625 -1.375 -0.328125q-0.515625 -0.171875 -0.890625 -0.5625q-0.359375 -0.40625 -0.359375 -1.109375q0 -0.875 0.734375 -1.4375q0.734375 -0.5625 2.046875 -0.5625q0.671875 0 1.34375 0.1875q0.6875 0.171875 1.125 0.46875l-0.40625 0.75q-0.859375 -0.59375 -2.0625 -0.59375q-0.90625 0 -1.375 0.328125q-0.453125 0.3125 -0.453125 0.828125q0 0.40625 0.25 0.640625q0.265625 0.234375 0.65625 0.359375q0.390625 0.109375 1.0625 0.234375q0.84375 0.15625 1.34375 0.3125q0.515625 0.15625 0.875 0.546875q0.359375 0.390625 0.359375 1.0625q0 0.921875 -0.765625 1.46875q-0.765625 0.53125 -2.125 0.53125z" fill-rule="nonzero"/><path fill="#f8f9fa" d="m575.58875 255.81465l154.70868 0l0 46.047256l-154.70868 0z" fill-rule="evenodd"/><path stroke="#502198" stroke-width="1.0" stroke-linejoin="round" stroke-linecap="butt" d="m575.58875 255.81465l154.70868 0l0 46.047256l-154.70868 0z" fill-rule="evenodd"/><path fill="#000000" d="m611.0677 279.24765l-1.90625 1.9375l0 2.453125l-0.984375 0l0 -9.328125l0.984375 0l0 5.640625l5.484375 -5.640625l1.125 0l-4.03125 4.21875l4.3125 5.109375l-1.171875 0l-3.8125 -4.390625zm8.648987 -2.671875q1.375 0 2.109375 0.6875q0.734375 0.6875 0.734375 2.03125l0 4.34375l-0.90625 0l0 -1.09375q-0.3125 0.546875 -0.9375 0.859375q-0.625 0.296875 -1.46875 0.296875q-1.171875 0 -1.875 -0.546875q-0.6875 -0.5625 -0.6875 -1.484375q0 -0.890625 0.640625 -1.4375q0.65625 -0.546875 2.0625 -0.546875l2.234375 0l0 -0.4375q0 -0.90625 -0.515625 -1.375q-0.5 -0.46875 -1.484375 -0.46875q-0.65625 0 -1.28125 0.21875q-0.609375 0.21875 -1.046875 0.609375l-0.421875 -0.71875q0.53125 -0.453125 1.28125 -0.6875q0.75 -0.25 1.5625 -0.25zm-0.328125 6.375q0.796875 0 1.375 -0.359375q0.578125 -0.359375 0.859375 -1.0625l0 -1.140625l-2.203125 0q-1.796875 0 -1.796875 1.25q0 0.609375 0.453125 0.96875q0.46875 0.34375 1.3125 0.34375zm8.066711 -8.46875q-0.609375 0 -0.921875 0.34375q-0.3125 0.328125 -0.3125 0.96875l0 0.828125l2.15625 0l0 0.8125l-2.140625 0l0 6.203125l-0.9375 0l0 -6.203125l-1.25 0l0 -0.8125l1.25 0l0 -0.859375q0 -0.96875 0.546875 -1.515625q0.546875 -0.5625 1.5625 -0.5625q0.40625 0 0.78125 0.109375q0.375 0.109375 0.625 0.328125l-0.328125 0.703125q-0.40625 -0.34375 -1.03125 -0.34375zm4.7994385 5.640625l-1.65625 1.515625l0 2.0l-0.953125 0l0 -9.890625l0.953125 0l0 6.703125l4.1875 -3.828125l1.171875 0l-3.0 2.875l3.28125 4.140625l-1.15625 0l-2.828125 -3.515625zm7.720642 -3.546875q1.375 0 2.109375 0.6875q0.734375 0.6875 0.734375 2.03125l0 4.34375l-0.90625 0l0 -1.09375q-0.3125 0.546875 -0.9375 0.859375q-0.625 0.296875 -1.46875 0.296875q-1.171875 0 -1.875 -0.546875q-0.6875 -0.5625 -0.6875 -1.484375q0 -0.890625 0.640625 -1.4375q0.65625 -0.546875 2.0625 -0.546875l2.234375 0l0 -0.4375q0 -0.90625 -0.515625 -1.375q-0.5 -0.46875 -1.484375 -0.46875q-0.65625 0 -1.28125 0.21875q-0.609375 0.21875 -1.046875 0.609375l-0.421875 -0.71875q0.53125 -0.453125 1.28125 -0.6875q0.75 -0.25 1.5625 -0.25zm-0.328125 6.375q0.796875 0 1.375 -0.359375q0.578125 -0.359375 0.859375 -1.0625l0 -1.140625l-2.203125 0q-1.796875 0 -1.796875 1.25q0 0.609375 0.453125 0.96875q0.46875 0.34375 1.3125 0.34375zm8.519775 0.765625q-1.046875 0 -2.0 -0.328125q-0.953125 -0.34375 -1.46875 -0.890625l0.390625 -0.75q0.5 0.5 1.34375 0.8125q0.84375 0.3125 1.734375 0.3125q1.25 0 1.875 -0.453125q0.625 -0.453125 0.625 -1.1875q0 -0.5625 -0.34375 -0.890625q-0.328125 -0.34375 -0.828125 -0.515625q-0.484375 -0.1875 -1.375 -0.40625q-1.046875 -0.265625 -1.671875 -0.5q-0.625 -0.25 -1.078125 -0.75q-0.4375 -0.515625 -0.4375 -1.375q0 -0.71875 0.359375 -1.296875q0.375 -0.578125 1.140625 -0.921875q0.78125 -0.34375 1.9375 -0.34375q0.796875 0 1.5625 0.21875q0.765625 0.21875 1.328125 0.609375l-0.34375 0.78125q-0.578125 -0.390625 -1.25 -0.578125q-0.65625 -0.1875 -1.296875 -0.1875q-1.234375 0 -1.859375 0.46875q-0.609375 0.46875 -0.609375 1.21875q0 0.5625 0.328125 0.90625q0.34375 0.328125 0.859375 0.515625q0.515625 0.171875 1.375 0.390625q1.03125 0.25 1.65625 0.5q0.640625 0.25 1.078125 0.75q0.453125 0.5 0.453125 1.34375q0 0.703125 -0.390625 1.296875q-0.375 0.578125 -1.171875 0.921875q-0.78125 0.328125 -1.921875 0.328125zm9.118652 -0.5q-0.265625 0.234375 -0.671875 0.359375q-0.390625 0.125 -0.8125 0.125q-0.984375 0 -1.515625 -0.53125q-0.53125 -0.53125 -0.53125 -1.5l0 -4.234375l-1.25 0l0 -0.8125l1.25 0l0 -1.53125l0.9375 0l0 1.53125l2.140625 0l0 0.8125l-2.140625 0l0 4.171875q0 0.625 0.3125 0.953125q0.3125 0.328125 0.90625 0.328125q0.296875 0 0.5625 -0.09375q0.28125 -0.09375 0.46875 -0.265625l0.34375 0.6875zm2.6143188 -5.21875q0.34375 -0.703125 1.0 -1.0625q0.65625 -0.359375 1.625 -0.359375l0 0.921875l-0.21875 -0.015625q-1.109375 0 -1.734375 0.6875q-0.625 0.671875 -0.625 1.890625l0 3.578125l-0.953125 0l0 -7.015625l0.90625 0l0 1.375zm10.374329 2.421875l-5.859375 0q0.078125 1.09375 0.828125 1.78125q0.765625 0.671875 1.921875 0.671875q0.65625 0 1.203125 -0.234375q0.546875 -0.234375 0.953125 -0.6875l0.53125 0.609375q-0.46875 0.5625 -1.171875 0.859375q-0.703125 0.28125 -1.53125 0.28125q-1.078125 0 -1.921875 -0.453125q-0.828125 -0.46875 -1.296875 -1.28125q-0.46875 -0.8125 -0.46875 -1.828125q0 -1.03125 0.4375 -1.84375q0.453125 -0.8125 1.234375 -1.265625q0.78125 -0.453125 1.75 -0.453125q0.984375 0 1.75 0.453125q0.78125 0.453125 1.21875 1.265625q0.4375 0.796875 0.4375 1.84375l-0.015625 0.28125zm-3.390625 -3.03125q-1.0 0 -1.6875 0.65625q-0.6875 0.640625 -0.78125 1.671875l4.96875 0q-0.09375 -1.03125 -0.78125 -1.671875q-0.6875 -0.65625 -1.71875 -0.65625zm7.5845337 -0.8125q1.375 0 2.109375 0.6875q0.734375 0.6875 0.734375 2.03125l0 4.34375l-0.90625 0l0 -1.09375q-0.3125 0.546875 -0.9375 0.859375q-0.625 0.296875 -1.46875 0.296875q-1.171875 0 -1.875 -0.546875q-0.6875 -0.5625 -0.6875 -1.484375q0 -0.890625 0.640625 -1.4375q0.65625 -0.546875 2.0625 -0.546875l2.234375 0l0 -0.4375q0 -0.90625 -0.515625 -1.375q-0.5 -0.46875 -1.484375 -0.46875q-0.65625 0 -1.28125 0.21875q-0.609375 0.21875 -1.046875 0.609375l-0.421875 -0.71875q0.53125 -0.453125 1.28125 -0.6875q0.75 -0.25 1.5625 -0.25zm-0.328125 6.375q0.796875 0 1.375 -0.359375q0.578125 -0.359375 0.859375 -1.0625l0 -1.140625l-2.203125 0q-1.796875 0 -1.796875 1.25q0 0.609375 0.453125 0.96875q0.46875 0.34375 1.3125 0.34375zm14.488586 -6.375q1.3125 0 2.0625 0.765625q0.765625 0.75 0.765625 2.234375l0 4.0625l-0.953125 0l0 -3.96875q0 -1.09375 -0.53125 -1.65625q-0.515625 -0.578125 -1.484375 -0.578125q-1.078125 0 -1.71875 0.671875q-0.625 0.671875 -0.625 1.859375l0 3.671875l-0.9375 0l0 -3.96875q0 -1.09375 -0.53125 -1.65625q-0.53125 -0.578125 -1.5 -0.578125q-1.078125 0 -1.71875 0.671875q-0.625 0.671875 -0.625 1.859375l0 3.671875l-0.953125 0l0 -7.015625l0.90625 0l0 1.28125q0.375 -0.640625 1.046875 -0.984375q0.671875 -0.34375 1.53125 -0.34375q0.875 0 1.515625 0.375q0.65625 0.375 0.984375 1.109375q0.375 -0.703125 1.09375 -1.09375q0.734375 -0.390625 1.671875 -0.390625zm7.2817383 7.125q-0.859375 0 -1.640625 -0.234375q-0.78125 -0.25 -1.21875 -0.625l0.421875 -0.75q0.453125 0.34375 1.109375 0.5625q0.671875 0.21875 1.390625 0.21875q0.953125 0 1.40625 -0.296875q0.46875 -0.296875 0.46875 -0.84375q0 -0.390625 -0.25 -0.609375q-0.25 -0.21875 -0.640625 -0.328125q-0.390625 -0.109375 -1.03125 -0.21875q-0.84375 -0.15625 -1.375 -0.328125q-0.515625 -0.171875 -0.890625 -0.5625q-0.359375 -0.40625 -0.359375 -1.109375q0 -0.875 0.734375 -1.4375q0.734375 -0.5625 2.046875 -0.5625q0.671875 0 1.34375 0.1875q0.6875 0.171875 1.125 0.46875l-0.40625 0.75q-0.859375 -0.59375 -2.0625 -0.59375q-0.90625 0 -1.375 0.328125q-0.453125 0.3125 -0.453125 0.828125q0 0.40625 0.25 0.640625q0.265625 0.234375 0.65625 0.359375q0.390625 0.109375 1.0625 0.234375q0.84375 0.15625 1.34375 0.3125q0.515625 0.15625 0.875 0.546875q0.359375 0.390625 0.359375 1.0625q0 0.921875 -0.765625 1.46875q-0.765625 0.53125 -2.125 0.53125z" fill-rule="nonzero"/><path fill="#502198" d="m189.3227 402.90555l569.3543 0l0 38.960632l-569.3543 0z" fill-rule="evenodd"/><path fill="#ffffff" d="m403.02777 425.73276l0 1.453125l-7.0 0l0 -9.328125l6.8125 0l0 1.453125l-5.078125 0l0 2.421875l4.5 0l0 1.421875l-4.5 0l0 2.578125l5.265625 0zm10.757935 -5.75q1.34375 0 2.125 0.78125q0.796875 0.78125 0.796875 2.34375l0 4.078125l-1.671875 0l0 -3.859375q0 -0.9375 -0.421875 -1.40625q-0.40625 -0.484375 -1.171875 -0.484375q-0.84375 0 -1.359375 0.5625q-0.5 0.546875 -0.5 1.578125l0 3.609375l-1.671875 0l0 -3.859375q0 -0.9375 -0.40625 -1.40625q-0.40625 -0.484375 -1.1875 -0.484375q-0.84375 0 -1.34375 0.546875q-0.5 0.546875 -0.5 1.59375l0 3.609375l-1.671875 0l0 -7.125l1.578125 0l0 0.921875q0.40625 -0.484375 1.0 -0.734375q0.609375 -0.265625 1.34375 -0.265625q0.796875 0 1.40625 0.3125q0.625 0.296875 0.984375 0.875q0.4375 -0.5625 1.125 -0.875q0.703125 -0.3125 1.546875 -0.3125zm8.987579 0q1.046875 0 1.859375 0.453125q0.828125 0.453125 1.296875 1.28125q0.46875 0.828125 0.46875 1.90625q0 1.078125 -0.46875 1.921875q-0.46875 0.828125 -1.296875 1.28125q-0.8125 0.453125 -1.859375 0.453125q-0.71875 0 -1.328125 -0.25q-0.609375 -0.25 -1.03125 -0.765625l0 0.921875l-1.578125 0l0 -9.890625l1.671875 0l0 3.640625q0.421875 -0.46875 1.0 -0.703125q0.578125 -0.25 1.265625 -0.25zm-0.1875 5.875q0.921875 0 1.515625 -0.609375q0.59375 -0.625 0.59375 -1.625q0 -1.0 -0.59375 -1.609375q-0.59375 -0.609375 -1.515625 -0.609375q-0.59375 0 -1.078125 0.28125q-0.46875 0.265625 -0.75 0.78125q-0.28125 0.5 -0.28125 1.15625q0 0.671875 0.28125 1.1875q0.28125 0.5 0.75 0.78125q0.484375 0.265625 1.078125 0.265625zm12.080566 -2.1875q0 0.171875 -0.03125 0.484375l-5.578125 0q0.140625 0.796875 0.765625 1.265625q0.625 0.453125 1.546875 0.453125q1.171875 0 1.921875 -0.78125l0.890625 1.03125q-0.46875 0.5625 -1.203125 0.859375q-0.734375 0.296875 -1.65625 0.296875q-1.171875 0 -2.0625 -0.46875q-0.890625 -0.46875 -1.390625 -1.296875q-0.484375 -0.828125 -0.484375 -1.890625q0 -1.03125 0.46875 -1.859375q0.484375 -0.84375 1.3125 -1.3125q0.84375 -0.46875 1.90625 -0.46875q1.03125 0 1.84375 0.46875q0.828125 0.453125 1.28125 1.296875q0.46875 0.828125 0.46875 1.921875zm-3.59375 -2.34375q-0.796875 0 -1.359375 0.46875q-0.546875 0.46875 -0.671875 1.265625l4.046875 0q-0.109375 -0.78125 -0.65625 -1.25q-0.546875 -0.484375 -1.359375 -0.484375zm12.16507 -4.03125l0 9.890625l-1.59375 0l0 -0.921875q-0.421875 0.515625 -1.03125 0.765625q-0.59375 0.25 -1.328125 0.25q-1.03125 0 -1.859375 -0.453125q-0.8125 -0.453125 -1.28125 -1.28125q-0.46875 -0.84375 -0.46875 -1.921875q0 -1.078125 0.46875 -1.90625q0.46875 -0.828125 1.28125 -1.28125q0.828125 -0.453125 1.859375 -0.453125q0.703125 0 1.28125 0.25q0.59375 0.234375 1.0 0.71875l0 -3.65625l1.671875 0zm-3.75 8.5625q0.59375 0 1.0625 -0.265625q0.484375 -0.28125 0.765625 -0.78125q0.28125 -0.515625 0.28125 -1.1875q0 -0.65625 -0.28125 -1.15625q-0.28125 -0.515625 -0.765625 -0.78125q-0.46875 -0.28125 -1.0625 -0.28125q-0.609375 0 -1.09375 0.28125q-0.46875 0.265625 -0.75 0.78125q-0.28125 0.5 -0.28125 1.15625q0 0.671875 0.28125 1.1875q0.28125 0.5 0.75 0.78125q0.484375 0.265625 1.09375 0.265625zm12.906403 -8.5625l0 9.890625l-1.59375 0l0 -0.921875q-0.421875 0.515625 -1.03125 0.765625q-0.59375 0.25 -1.328125 0.25q-1.03125 0 -1.859375 -0.453125q-0.8125 -0.453125 -1.28125 -1.28125q-0.46875 -0.84375 -0.46875 -1.921875q0 -1.078125 0.46875 -1.90625q0.46875 -0.828125 1.28125 -1.28125q0.828125 -0.453125 1.859375 -0.453125q0.703125 0 1.28125 0.25q0.59375 0.234375 1.0 0.71875l0 -3.65625l1.671875 0zm-3.75 8.5625q0.59375 0 1.0625 -0.265625q0.484375 -0.28125 0.765625 -0.78125q0.28125 -0.515625 0.28125 -1.1875q0 -0.65625 -0.28125 -1.15625q-0.28125 -0.515625 -0.765625 -0.78125q-0.46875 -0.28125 -1.0625 -0.28125q-0.609375 0 -1.09375 0.28125q-0.46875 0.265625 -0.75 0.78125q-0.28125 0.5 -0.28125 1.15625q0 0.671875 0.28125 1.1875q0.28125 0.5 0.75 0.78125q0.484375 0.265625 1.09375 0.265625zm12.625153 -2.1875q0 0.171875 -0.03125 0.484375l-5.578125 0q0.140625 0.796875 0.765625 1.265625q0.625 0.453125 1.546875 0.453125q1.171875 0 1.921875 -0.78125l0.890625 1.03125q-0.46875 0.5625 -1.203125 0.859375q-0.734375 0.296875 -1.65625 0.296875q-1.171875 0 -2.0625 -0.46875q-0.890625 -0.46875 -1.390625 -1.296875q-0.484375 -0.828125 -0.484375 -1.890625q0 -1.03125 0.46875 -1.859375q0.484375 -0.84375 1.3125 -1.3125q0.84375 -0.46875 1.90625 -0.46875q1.03125 0 1.84375 0.46875q0.828125 0.453125 1.28125 1.296875q0.46875 0.828125 0.46875 1.921875zm-3.59375 -2.34375q-0.796875 0 -1.359375 0.46875q-0.546875 0.46875 -0.671875 1.265625l4.046875 0q-0.109375 -0.78125 -0.65625 -1.25q-0.546875 -0.484375 -1.359375 -0.484375zm12.165039 -4.03125l0 9.890625l-1.59375 0l0 -0.921875q-0.421875 0.515625 -1.03125 0.765625q-0.59375 0.25 -1.328125 0.25q-1.03125 0 -1.859375 -0.453125q-0.8125 -0.453125 -1.28125 -1.28125q-0.46875 -0.84375 -0.46875 -1.921875q0 -1.078125 0.46875 -1.90625q0.46875 -0.828125 1.28125 -1.28125q0.828125 -0.453125 1.859375 -0.453125q0.703125 0 1.28125 0.25q0.59375 0.234375 1.0 0.71875l0 -3.65625l1.671875 0zm-3.75 8.5625q0.59375 0 1.0625 -0.265625q0.484375 -0.28125 0.765625 -0.78125q0.28125 -0.515625 0.28125 -1.1875q0 -0.65625 -0.28125 -1.15625q-0.28125 -0.515625 -0.765625 -0.78125q-0.46875 -0.28125 -1.0625 -0.28125q-0.609375 0 -1.09375 0.28125q-0.46875 0.265625 -0.75 0.78125q-0.28125 0.5 -0.28125 1.15625q0 0.671875 0.28125 1.1875q0.28125 0.5 0.75 0.78125q0.484375 0.265625 1.09375 0.265625zm18.069336 -8.0l0 9.328125l-1.734375 0l0 -4.0l-4.828125 0l0 4.0l-1.734375 0l0 -9.328125l1.734375 0l0 3.84375l4.828125 0l0 -3.84375l1.734375 0zm6.6238403 8.9375q-0.296875 0.25 -0.71875 0.375q-0.421875 0.109375 -0.890625 0.109375q-1.171875 0 -1.8125 -0.609375q-0.640625 -0.625 -0.640625 -1.796875l0 -3.421875l-1.171875 0l0 -1.328125l1.171875 0l0 -1.625l1.671875 0l0 1.625l1.90625 0l0 1.328125l-1.90625 0l0 3.390625q0 0.515625 0.25 0.796875q0.25 0.265625 0.734375 0.265625q0.5625 0 0.9375 -0.296875l0.46875 1.1875zm5.477783 0q-0.296875 0.25 -0.71875 0.375q-0.421875 0.109375 -0.890625 0.109375q-1.171875 0 -1.8125 -0.609375q-0.640625 -0.625 -0.640625 -1.796875l0 -3.421875l-1.171875 0l0 -1.328125l1.171875 0l0 -1.625l1.671875 0l0 1.625l1.90625 0l0 1.328125l-1.90625 0l0 3.390625q0 0.515625 0.25 0.796875q0.25 0.265625 0.734375 0.265625q0.5625 0 0.9375 -0.296875l0.46875 1.1875zm5.307373 -6.8125q1.046875 0 1.859375 0.453125q0.828125 0.453125 1.296875 1.28125q0.46875 0.828125 0.46875 1.90625q0 1.078125 -0.46875 1.921875q-0.46875 0.828125 -1.296875 1.28125q-0.8125 0.453125 -1.859375 0.453125q-1.4375 0 -2.265625 -0.953125l0 3.4375l-1.671875 0l0 -9.703125l1.578125 0l0 0.9375q0.421875 -0.5 1.03125 -0.75q0.609375 -0.265625 1.328125 -0.265625zm-0.1875 5.875q0.921875 0 1.515625 -0.609375q0.59375 -0.625 0.59375 -1.625q0 -1.0 -0.59375 -1.609375q-0.59375 -0.609375 -1.515625 -0.609375q-0.59375 0 -1.078125 0.28125q-0.46875 0.265625 -0.75 0.78125q-0.28125 0.5 -0.28125 1.15625q0 0.671875 0.28125 1.1875q0.28125 0.5 0.75 0.78125q0.484375 0.265625 1.078125 0.265625zm12.118469 1.46875q-1.078125 0 -2.09375 -0.3125q-1.0 -0.3125 -1.578125 -0.8125l0.59375 -1.34375q0.578125 0.453125 1.40625 0.734375q0.84375 0.28125 1.671875 0.28125q1.046875 0 1.546875 -0.328125q0.515625 -0.328125 0.515625 -0.875q0 -0.40625 -0.28125 -0.65625q-0.28125 -0.265625 -0.71875 -0.40625q-0.4375 -0.15625 -1.203125 -0.34375q-1.0625 -0.25 -1.734375 -0.5q-0.65625 -0.25 -1.125 -0.78125q-0.46875 -0.546875 -0.46875 -1.46875q0 -0.78125 0.40625 -1.40625q0.421875 -0.640625 1.265625 -1.015625q0.859375 -0.375 2.078125 -0.375q0.859375 0 1.6875 0.21875q0.828125 0.21875 1.421875 0.609375l-0.546875 1.34375q-0.609375 -0.359375 -1.28125 -0.546875q-0.671875 -0.1875 -1.296875 -0.1875q-1.015625 0 -1.515625 0.359375q-0.5 0.34375 -0.5 0.921875q0 0.390625 0.28125 0.65625q0.28125 0.25 0.71875 0.390625q0.453125 0.140625 1.203125 0.328125q1.046875 0.25 1.703125 0.515625q0.671875 0.25 1.140625 0.78125q0.484375 0.53125 0.484375 1.4375q0 0.78125 -0.421875 1.40625q-0.421875 0.625 -1.28125 1.0q-0.84375 0.375 -2.078125 0.375zm12.023987 -3.65625q0 0.171875 -0.03125 0.484375l-5.578125 0q0.140625 0.796875 0.765625 1.265625q0.625 0.453125 1.546875 0.453125q1.171875 0 1.921875 -0.78125l0.890625 1.03125q-0.46875 0.5625 -1.203125 0.859375q-0.734375 0.296875 -1.65625 0.296875q-1.171875 0 -2.0625 -0.46875q-0.890625 -0.46875 -1.390625 -1.296875q-0.484375 -0.828125 -0.484375 -1.890625q0 -1.03125 0.46875 -1.859375q0.484375 -0.84375 1.3125 -1.3125q0.84375 -0.46875 1.90625 -0.46875q1.03125 0 1.84375 0.46875q0.828125 0.453125 1.28125 1.296875q0.46875 0.828125 0.46875 1.921875zm-3.59375 -2.34375q-0.796875 0 -1.359375 0.46875q-0.546875 0.46875 -0.671875 1.265625l4.046875 0q-0.109375 -0.78125 -0.65625 -1.25q-0.546875 -0.484375 -1.359375 -0.484375zm6.774414 -0.21875q0.734375 -1.125 2.546875 -1.125l0 1.59375q-0.21875 -0.046875 -0.390625 -0.046875q-0.96875 0 -1.515625 0.578125q-0.546875 0.5625 -0.546875 1.625l0 3.453125l-1.671875 0l0 -7.125l1.578125 0l0 1.046875zm10.875916 -1.046875l-3.046875 7.125l-1.71875 0l-3.046875 -7.125l1.734375 0l2.203125 5.28125l2.28125 -5.28125l1.59375 0zm7.534912 3.609375q0 0.171875 -0.03125 0.484375l-5.578125 0q0.140625 0.796875 0.765625 1.265625q0.625 0.453125 1.546875 0.453125q1.171875 0 1.921875 -0.78125l0.890625 1.03125q-0.46875 0.5625 -1.203125 0.859375q-0.734375 0.296875 -1.65625 0.296875q-1.171875 0 -2.0625 -0.46875q-0.890625 -0.46875 -1.390625 -1.296875q-0.484375 -0.828125 -0.484375 -1.890625q0 -1.03125 0.46875 -1.859375q0.484375 -0.84375 1.3125 -1.3125q0.84375 -0.46875 1.90625 -0.46875q1.03125 0 1.84375 0.46875q0.828125 0.453125 1.28125 1.296875q0.46875 0.828125 0.46875 1.921875zm-3.59375 -2.34375q-0.796875 0 -1.359375 0.46875q-0.546875 0.46875 -0.671875 1.265625l4.046875 0q-0.109375 -0.78125 -0.65625 -1.25q-0.546875 -0.484375 -1.359375 -0.484375zm6.774414 -0.21875q0.734375 -1.125 2.546875 -1.125l0 1.59375q-0.21875 -0.046875 -0.390625 -0.046875q-0.96875 0 -1.515625 0.578125q-0.546875 0.5625 -0.546875 1.625l0 3.453125l-1.671875 0l0 -7.125l1.578125 0l0 1.046875z" fill-rule="nonzero"/><path fill="#000000" fill-opacity="0.0" d="m294.49725 321.961l179.49606 80.944885" fill-rule="evenodd"/><path stroke="#ffffff" stroke-width="1.0" stroke-linejoin="round" stroke-linecap="butt" d="m294.49725 321.961l174.02649 78.47833" fill-rule="evenodd"/><path fill="#ffffff" stroke="#ffffff" stroke-width="1.0" stroke-linecap="butt" d="m467.84473 401.94507l4.815918 0.35983276l-3.4578857 -3.3712769z" fill-rule="evenodd"/><path fill="#000000" fill-opacity="0.0" d="m652.9598 321.961l-178.9606 80.944885" fill-rule="evenodd"/><path stroke="#ffffff" stroke-width="1.0" stroke-linejoin="round" stroke-linecap="butt" d="m652.95984 321.961l-173.49384 78.47223" fill-rule="evenodd"/><path fill="#ffffff" stroke="#ffffff" stroke-width="1.0" stroke-linecap="butt" d="m478.78528 398.92825l-3.4541016 3.3751526l4.8154907 -0.36523438z" fill-rule="evenodd"/><path fill="#000000" fill-opacity="0.0" d="m189.3227 441.87988l569.3543 0l0 46.04727l-569.3543 0z" fill-rule="evenodd"/><path fill="#ffffff" d="m354.53387 462.3999l-2.0 -2.8125q-0.453125 0.0625 -0.828125 0.0625l-2.390625 0l0 2.75l-0.609375 0l0 -8.40625l3.0 0q1.59375 0 2.484375 0.75q0.90625 0.75 0.90625 2.09375q0 0.984375 -0.515625 1.671875q-0.5 0.671875 -1.453125 0.953125l2.09375 2.9375l-0.6875 0zm-2.828125 -3.28125q1.34375 0 2.046875 -0.59375q0.71875 -0.59375 0.71875 -1.6875q0 -1.09375 -0.71875 -1.6875q-0.703125 -0.59375 -2.046875 -0.59375l-2.390625 0l0 4.5625l2.390625 0zm11.43692 2.734375l0 0.546875l-5.796875 0l0 -8.40625l5.609375 0l0 0.5625l-5.0 0l0 3.3125l4.46875 0l0 0.53125l-4.46875 0l0 3.453125l5.1875 0zm4.434326 0.609375q-0.921875 0 -1.765625 -0.3125q-0.828125 -0.328125 -1.296875 -0.828125l0.28125 -0.453125q0.4375 0.46875 1.1875 0.765625q0.75 0.28125 1.578125 0.28125q1.203125 0 1.8125 -0.453125q0.609375 -0.453125 0.609375 -1.1875q0 -0.5625 -0.328125 -0.890625q-0.3125 -0.34375 -0.796875 -0.515625q-0.484375 -0.1875 -1.296875 -0.375q-0.921875 -0.234375 -1.484375 -0.453125q-0.546875 -0.21875 -0.9375 -0.65625q-0.390625 -0.453125 -0.390625 -1.21875q0 -0.609375 0.3125 -1.109375q0.328125 -0.515625 0.984375 -0.8125q0.671875 -0.296875 1.671875 -0.296875q0.703125 0 1.375 0.203125q0.671875 0.203125 1.15625 0.546875l-0.21875 0.484375q-0.515625 -0.34375 -1.125 -0.515625q-0.59375 -0.1875 -1.1875 -0.1875q-1.15625 0 -1.765625 0.46875q-0.59375 0.46875 -0.59375 1.21875q0 0.5625 0.3125 0.90625q0.328125 0.328125 0.8125 0.515625q0.484375 0.171875 1.3125 0.375q0.921875 0.21875 1.46875 0.4375q0.5625 0.21875 0.953125 0.65625q0.390625 0.4375 0.390625 1.1875q0 0.609375 -0.34375 1.109375q-0.328125 0.5 -1.015625 0.8125q-0.671875 0.296875 -1.671875 0.296875zm6.5942993 -7.90625l-3.03125 0l0 -0.5625l6.65625 0l0 0.5625l-3.015625 0l0 7.84375l-0.609375 0l0 -7.84375zm13.418182 5.484375l-4.875 0l-1.0625 2.359375l-0.65625 0l3.859375 -8.40625l0.609375 0l3.875 8.40625l-0.671875 0l-1.078125 -2.359375zm-0.21875 -0.515625l-2.21875 -4.859375l-2.1875 4.859375l4.40625 0zm6.4913025 -5.53125q1.59375 0 2.484375 0.75q0.90625 0.75 0.90625 2.09375q0 1.3125 -0.90625 2.0625q-0.890625 0.75 -2.484375 0.75l-2.390625 0l0 2.75l-0.609375 0l0 -8.40625l3.0 0zm0 5.109375q1.34375 0 2.046875 -0.578125q0.71875 -0.59375 0.71875 -1.6875q0 -1.09375 -0.71875 -1.6875q-0.703125 -0.59375 -2.046875 -0.59375l-2.390625 0l0 4.546875l2.390625 0zm5.4600525 -5.109375l0.609375 0l0 8.40625l-0.609375 0l0 -8.40625zm7.874054 10.734375q-0.671875 -1.109375 -1.03125 -2.53125q-0.34375 -1.421875 -0.34375 -3.078125q0 -1.65625 0.34375 -3.109375q0.359375 -1.453125 1.03125 -2.515625l0.5625 0q-1.34375 2.3125 -1.34375 5.625q0 3.296875 1.34375 5.609375l-0.5625 0zm4.8832703 -2.28125q-0.90625 0 -1.625 -0.40625q-0.71875 -0.40625 -1.125 -1.125q-0.40625 -0.734375 -0.40625 -1.640625q0 -0.9375 0.40625 -1.65625q0.40625 -0.734375 1.125 -1.125q0.71875 -0.40625 1.625 -0.40625q0.765625 0 1.375 0.296875q0.625 0.296875 1.0 0.859375l-0.4375 0.3125q-0.328125 -0.453125 -0.828125 -0.6875q-0.5 -0.234375 -1.109375 -0.234375q-0.71875 0 -1.3125 0.328125q-0.578125 0.328125 -0.90625 0.9375q-0.328125 0.59375 -0.328125 1.375q0 0.765625 0.328125 1.375q0.328125 0.59375 0.90625 0.9375q0.59375 0.328125 1.3125 0.328125q0.609375 0 1.109375 -0.234375q0.5 -0.234375 0.828125 -0.703125l0.4375 0.3125q-0.375 0.5625 -1.0 0.859375q-0.609375 0.296875 -1.375 0.296875zm6.5207825 0q-0.890625 0 -1.609375 -0.40625q-0.703125 -0.40625 -1.109375 -1.125q-0.40625 -0.734375 -0.40625 -1.640625q0 -0.921875 0.40625 -1.640625q0.40625 -0.734375 1.109375 -1.140625q0.71875 -0.40625 1.609375 -0.40625q0.890625 0 1.59375 0.40625q0.71875 0.40625 1.125 1.140625q0.421875 0.71875 0.421875 1.640625q0 0.90625 -0.421875 1.640625q-0.40625 0.71875 -1.125 1.125q-0.703125 0.40625 -1.59375 0.40625zm0 -0.53125q0.71875 0 1.28125 -0.328125q0.578125 -0.34375 0.90625 -0.9375q0.328125 -0.609375 0.328125 -1.375q0 -0.78125 -0.328125 -1.375q-0.328125 -0.59375 -0.90625 -0.921875q-0.5625 -0.34375 -1.28125 -0.34375q-0.71875 0 -1.296875 0.34375q-0.5625 0.328125 -0.890625 0.921875q-0.328125 0.59375 -0.328125 1.375q0 0.765625 0.328125 1.375q0.328125 0.59375 0.890625 0.9375q0.578125 0.328125 1.296875 0.328125zm8.049438 -5.828125q1.1875 0 1.859375 0.6875q0.6875 0.6875 0.6875 1.96875l0 3.65625l-0.59375 0l0 -3.609375q0 -1.0625 -0.546875 -1.609375q-0.53125 -0.546875 -1.484375 -0.546875q-1.109375 0 -1.75 0.65625q-0.625 0.65625 -0.625 1.765625l0 3.34375l-0.609375 0l0 -6.265625l0.578125 0l0 1.359375q0.328125 -0.65625 0.96875 -1.03125q0.640625 -0.375 1.515625 -0.375zm8.122925 5.921875q-0.21875 0.203125 -0.5625 0.328125q-0.34375 0.109375 -0.71875 0.109375q-0.8125 0 -1.265625 -0.453125q-0.4375 -0.453125 -0.4375 -1.25l0 -4.09375l-1.15625 0l0 -0.515625l1.15625 0l0 -1.359375l0.59375 0l0 1.359375l2.0 0l0 0.515625l-2.0 0l0 4.03125q0 0.609375 0.296875 0.9375q0.296875 0.3125 0.875 0.3125q0.59375 0 0.96875 -0.34375l0.25 0.421875zm6.7355347 -2.59375l-5.390625 0q0.03125 0.734375 0.375 1.3125q0.34375 0.5625 0.9375 0.875q0.59375 0.3125 1.34375 0.3125q0.609375 0 1.125 -0.21875q0.53125 -0.234375 0.875 -0.671875l0.359375 0.40625q-0.421875 0.484375 -1.046875 0.75q-0.609375 0.265625 -1.328125 0.265625q-0.9375 0 -1.671875 -0.40625q-0.71875 -0.40625 -1.140625 -1.125q-0.40625 -0.71875 -0.40625 -1.640625q0 -0.921875 0.390625 -1.640625q0.390625 -0.734375 1.0625 -1.140625q0.6875 -0.40625 1.546875 -0.40625q0.84375 0 1.515625 0.40625q0.6875 0.390625 1.078125 1.125q0.390625 0.71875 0.390625 1.625l-0.015625 0.171875zm-2.96875 -2.796875q-0.671875 0 -1.203125 0.296875q-0.515625 0.28125 -0.84375 0.828125q-0.3125 0.53125 -0.359375 1.203125l4.796875 0q-0.03125 -0.671875 -0.359375 -1.203125q-0.328125 -0.53125 -0.859375 -0.828125q-0.515625 -0.296875 -1.171875 -0.296875zm7.898407 -0.53125q1.1875 0 1.859375 0.6875q0.6875 0.6875 0.6875 1.96875l0 3.65625l-0.59375 0l0 -3.609375q0 -1.0625 -0.546875 -1.609375q-0.53125 -0.546875 -1.484375 -0.546875q-1.109375 0 -1.75 0.65625q-0.625 0.65625 -0.625 1.765625l0 3.34375l-0.609375 0l0 -6.265625l0.578125 0l0 1.359375q0.328125 -0.65625 0.96875 -1.03125q0.640625 -0.375 1.515625 -0.375zm8.122925 5.921875q-0.21875 0.203125 -0.5625 0.328125q-0.34375 0.109375 -0.71875 0.109375q-0.8125 0 -1.265625 -0.453125q-0.4375 -0.453125 -0.4375 -1.25l0 -4.09375l-1.15625 0l0 -0.515625l1.15625 0l0 -1.359375l0.59375 0l0 1.359375l2.0 0l0 0.515625l-2.0 0l0 4.03125q0 0.609375 0.296875 0.9375q0.296875 0.3125 0.875 0.3125q0.59375 0 0.96875 -0.34375l0.25 0.421875zm1.0310669 -3.09375l3.078125 0l0 0.53125l-3.078125 0l0 -0.53125zm6.528137 -4.359375l-3.03125 0l0 -0.5625l6.65625 0l0 0.5625l-3.015625 0l0 7.84375l-0.609375 0l0 -7.84375zm9.566803 1.578125l-3.21875 7.125q-0.359375 0.828125 -0.828125 1.171875q-0.46875 0.34375 -1.125 0.34375q-0.421875 0 -0.8125 -0.140625q-0.375 -0.140625 -0.640625 -0.421875l0.296875 -0.453125q0.484375 0.484375 1.171875 0.484375q0.453125 0 0.78125 -0.25q0.328125 -0.25 0.59375 -0.859375l0.34375 -0.765625l-2.828125 -6.234375l0.640625 0l2.515625 5.609375l2.5 -5.609375l0.609375 0zm4.461029 -0.046875q0.875 0 1.578125 0.40625q0.703125 0.40625 1.109375 1.125q0.40625 0.71875 0.40625 1.65625q0 0.921875 -0.40625 1.65625q-0.40625 0.71875 -1.109375 1.125q-0.703125 0.390625 -1.578125 0.390625q-0.828125 0 -1.5 -0.390625q-0.671875 -0.390625 -1.046875 -1.078125l0 3.75l-0.609375 0l0 -8.59375l0.578125 0l0 1.484375q0.375 -0.734375 1.046875 -1.125q0.6875 -0.40625 1.53125 -0.40625zm-0.046875 5.828125q0.71875 0 1.296875 -0.328125q0.578125 -0.34375 0.90625 -0.9375q0.328125 -0.609375 0.328125 -1.375q0 -0.78125 -0.328125 -1.375q-0.328125 -0.59375 -0.90625 -0.921875q-0.578125 -0.34375 -1.296875 -0.34375q-0.71875 0 -1.296875 0.34375q-0.5625 0.328125 -0.890625 0.921875q-0.328125 0.59375 -0.328125 1.375q0 0.765625 0.328125 1.375q0.328125 0.59375 0.890625 0.9375q0.578125 0.328125 1.296875 0.328125zm10.287567 -2.5l-5.390625 0q0.03125 0.734375 0.375 1.3125q0.34375 0.5625 0.9375 0.875q0.59375 0.3125 1.34375 0.3125q0.609375 0 1.125 -0.21875q0.53125 -0.234375 0.875 -0.671875l0.359375 0.40625q-0.421875 0.484375 -1.046875 0.75q-0.609375 0.265625 -1.328125 0.265625q-0.9375 0 -1.671875 -0.40625q-0.71875 -0.40625 -1.140625 -1.125q-0.40625 -0.71875 -0.40625 -1.640625q0 -0.921875 0.390625 -1.640625q0.390625 -0.734375 1.0625 -1.140625q0.6875 -0.40625 1.546875 -0.40625q0.84375 0 1.515625 0.40625q0.6875 0.390625 1.078125 1.125q0.390625 0.71875 0.390625 1.625l-0.015625 0.171875zm-2.96875 -2.796875q-0.671875 0 -1.203125 0.296875q-0.515625 0.28125 -0.84375 0.828125q-0.3125 0.53125 -0.359375 1.203125l4.796875 0q-0.03125 -0.671875 -0.359375 -1.203125q-0.328125 -0.53125 -0.859375 -0.828125q-0.515625 -0.296875 -1.171875 -0.296875zm4.429657 -0.03125l5.109375 0l0 0.515625l-5.109375 0l0 -0.515625zm0 2.71875l5.109375 0l0 0.5l-5.109375 0l0 -0.5zm7.171814 -5.859375q0.21875 0 0.359375 0.15625q0.140625 0.140625 0.140625 0.34375q0 0.125 -0.03125 0.265625q-0.03125 0.125 -0.078125 0.296875l-0.46875 1.625l-0.421875 0l0.390625 -1.6875q-0.1875 -0.046875 -0.296875 -0.171875q-0.09375 -0.125 -0.09375 -0.328125q0 -0.203125 0.140625 -0.34375q0.140625 -0.15625 0.359375 -0.15625zm1.84375 0q0.21875 0 0.359375 0.15625q0.140625 0.140625 0.140625 0.34375q0 0.125 -0.03125 0.265625q-0.03125 0.125 -0.078125 0.296875l-0.46875 1.625l-0.421875 0l0.390625 -1.6875q-0.1875 -0.046875 -0.296875 -0.171875q-0.09375 -0.125 -0.09375 -0.328125q0 -0.203125 0.140625 -0.34375q0.140625 -0.15625 0.359375 -0.15625zm4.459778 2.640625q1.15625 0 1.78125 0.59375q0.625 0.59375 0.625 1.75l0 3.96875l-0.578125 0l0 -1.109375q-0.296875 0.546875 -0.875 0.859375q-0.578125 0.296875 -1.375 0.296875q-1.046875 0 -1.65625 -0.484375q-0.609375 -0.5 -0.609375 -1.296875q0 -0.78125 0.5625 -1.265625q0.5625 -0.484375 1.78125 -0.484375l2.15625 0l0 -0.515625q0 -0.875 -0.484375 -1.328125q-0.46875 -0.453125 -1.375 -0.453125q-0.625 0 -1.203125 0.21875q-0.5625 0.203125 -0.96875 0.578125l-0.296875 -0.4375q0.46875 -0.421875 1.125 -0.65625q0.65625 -0.234375 1.390625 -0.234375zm-0.34375 5.875q0.78125 0 1.328125 -0.359375q0.546875 -0.359375 0.828125 -1.046875l0 -1.1875l-2.140625 0q-0.921875 0 -1.34375 0.34375q-0.40625 0.328125 -0.40625 0.921875q0 0.609375 0.453125 0.96875q0.453125 0.359375 1.28125 0.359375zm8.371033 -5.875q0.875 0 1.578125 0.40625q0.703125 0.40625 1.109375 1.125q0.40625 0.71875 0.40625 1.65625q0 0.921875 -0.40625 1.65625q-0.40625 0.71875 -1.109375 1.125q-0.703125 0.390625 -1.578125 0.390625q-0.828125 0 -1.5 -0.390625q-0.671875 -0.390625 -1.046875 -1.078125l0 3.75l-0.609375 0l0 -8.59375l0.578125 0l0 1.484375q0.375 -0.734375 1.046875 -1.125q0.6875 -0.40625 1.53125 -0.40625zm-0.046875 5.828125q0.71875 0 1.296875 -0.328125q0.578125 -0.34375 0.90625 -0.9375q0.328125 -0.609375 0.328125 -1.375q0 -0.78125 -0.328125 -1.375q-0.328125 -0.59375 -0.90625 -0.921875q-0.578125 -0.34375 -1.296875 -0.34375q-0.71875 0 -1.296875 0.34375q-0.5625 0.328125 -0.890625 0.921875q-0.328125 0.59375 -0.328125 1.375q0 0.765625 0.328125 1.375q0.328125 0.59375 0.890625 0.9375q0.578125 0.328125 1.296875 0.328125zm8.146912 -5.828125q0.875 0 1.578125 0.40625q0.703125 0.40625 1.109375 1.125q0.40625 0.71875 0.40625 1.65625q0 0.921875 -0.40625 1.65625q-0.40625 0.71875 -1.109375 1.125q-0.703125 0.390625 -1.578125 0.390625q-0.828125 0 -1.5 -0.390625q-0.671875 -0.390625 -1.046875 -1.078125l0 3.75l-0.609375 0l0 -8.59375l0.578125 0l0 1.484375q0.375 -0.734375 1.046875 -1.125q0.6875 -0.40625 1.53125 -0.40625zm-0.046875 5.828125q0.71875 0 1.296875 -0.328125q0.578125 -0.34375 0.90625 -0.9375q0.328125 -0.609375 0.328125 -1.375q0 -0.78125 -0.328125 -1.375q-0.328125 -0.59375 -0.90625 -0.921875q-0.578125 -0.34375 -1.296875 -0.34375q-0.71875 0 -1.296875 0.34375q-0.5625 0.328125 -0.890625 0.921875q-0.328125 0.59375 -0.328125 1.375q0 0.765625 0.328125 1.375q0.328125 0.59375 0.890625 0.9375q0.578125 0.328125 1.296875 0.328125zm4.9907227 -8.421875l0.609375 0l0 8.90625l-0.609375 0l0 -8.90625zm3.132019 2.640625l0.609375 0l0 6.265625l-0.609375 0l0 -6.265625zm0.3125 -1.515625q-0.203125 0 -0.359375 -0.140625q-0.140625 -0.140625 -0.140625 -0.34375q0 -0.203125 0.140625 -0.34375q0.15625 -0.15625 0.359375 -0.15625q0.203125 0 0.34375 0.140625q0.140625 0.140625 0.140625 0.34375q0 0.203125 -0.140625 0.359375q-0.140625 0.140625 -0.34375 0.140625zm5.303894 7.828125q-0.90625 0 -1.625 -0.40625q-0.71875 -0.40625 -1.125 -1.125q-0.40625 -0.734375 -0.40625 -1.640625q0 -0.9375 0.40625 -1.65625q0.40625 -0.734375 1.125 -1.125q0.71875 -0.40625 1.625 -0.40625q0.765625 0 1.375 0.296875q0.625 0.296875 1.0 0.859375l-0.4375 0.3125q-0.328125 -0.453125 -0.828125 -0.6875q-0.5 -0.234375 -1.109375 -0.234375q-0.71875 0 -1.3125 0.328125q-0.578125 0.328125 -0.90625 0.9375q-0.328125 0.59375 -0.328125 1.375q0 0.765625 0.328125 1.375q0.328125 0.59375 0.90625 0.9375q0.59375 0.328125 1.3125 0.328125q0.609375 0 1.109375 -0.234375q0.5 -0.234375 0.828125 -0.703125l0.4375 0.3125q-0.375 0.5625 -1.0 0.859375q-0.609375 0.296875 -1.375 0.296875zm6.300659 -6.359375q1.15625 0 1.78125 0.59375q0.625 0.59375 0.625 1.75l0 3.96875l-0.578125 0l0 -1.109375q-0.296875 0.546875 -0.875 0.859375q-0.578125 0.296875 -1.375 0.296875q-1.046875 0 -1.65625 -0.484375q-0.609375 -0.5 -0.609375 -1.296875q0 -0.78125 0.5625 -1.265625q0.5625 -0.484375 1.78125 -0.484375l2.15625 0l0 -0.515625q0 -0.875 -0.484375 -1.328125q-0.46875 -0.453125 -1.375 -0.453125q-0.625 0 -1.203125 0.21875q-0.5625 0.203125 -0.96875 0.578125l-0.296875 -0.4375q0.46875 -0.421875 1.125 -0.65625q0.65625 -0.234375 1.390625 -0.234375zm-0.34375 5.875q0.78125 0 1.328125 -0.359375q0.546875 -0.359375 0.828125 -1.046875l0 -1.1875l-2.140625 0q-0.921875 0 -1.34375 0.34375q-0.40625 0.328125 -0.40625 0.921875q0 0.609375 0.453125 0.96875q0.453125 0.359375 1.28125 0.359375zm8.324158 0.046875q-0.21875 0.203125 -0.5625 0.328125q-0.34375 0.109375 -0.71875 0.109375q-0.8125 0 -1.265625 -0.453125q-0.4375 -0.453125 -0.4375 -1.25l0 -4.09375l-1.15625 0l0 -0.515625l1.15625 0l0 -1.359375l0.59375 0l0 1.359375l2.0 0l0 0.515625l-2.0 0l0 4.03125q0 0.609375 0.296875 0.9375q0.296875 0.3125 0.875 0.3125q0.59375 0 0.96875 -0.34375l0.25 0.421875zm1.666687 -5.875l0.609375 0l0 6.265625l-0.609375 0l0 -6.265625zm0.3125 -1.515625q-0.203125 0 -0.359375 -0.140625q-0.140625 -0.140625 -0.140625 -0.34375q0 -0.203125 0.140625 -0.34375q0.15625 -0.15625 0.359375 -0.15625q0.203125 0 0.34375 0.140625q0.140625 0.140625 0.140625 0.34375q0 0.203125 -0.140625 0.359375q-0.140625 0.140625 -0.34375 0.140625zm5.272644 7.828125q-0.890625 0 -1.609375 -0.40625q-0.703125 -0.40625 -1.109375 -1.125q-0.40625 -0.734375 -0.40625 -1.640625q0 -0.921875 0.40625 -1.640625q0.40625 -0.734375 1.109375 -1.140625q0.71875 -0.40625 1.609375 -0.40625q0.890625 0 1.59375 0.40625q0.71875 0.40625 1.125 1.140625q0.421875 0.71875 0.421875 1.640625q0 0.90625 -0.421875 1.640625q-0.40625 0.71875 -1.125 1.125q-0.703125 0.40625 -1.59375 0.40625zm0 -0.53125q0.71875 0 1.28125 -0.328125q0.578125 -0.34375 0.90625 -0.9375q0.328125 -0.609375 0.328125 -1.375q0 -0.78125 -0.328125 -1.375q-0.328125 -0.59375 -0.90625 -0.921875q-0.5625 -0.34375 -1.28125 -0.34375q-0.71875 0 -1.296875 0.34375q-0.5625 0.328125 -0.890625 0.921875q-0.328125 0.59375 -0.328125 1.375q0 0.765625 0.328125 1.375q0.328125 0.59375 0.890625 0.9375q0.578125 0.328125 1.296875 0.328125zm8.049377 -5.828125q1.1875 0 1.859375 0.6875q0.6875 0.6875 0.6875 1.96875l0 3.65625l-0.59375 0l0 -3.609375q0 -1.0625 -0.546875 -1.609375q-0.53125 -0.546875 -1.484375 -0.546875q-1.109375 0 -1.75 0.65625q-0.625 0.65625 -0.625 1.765625l0 3.34375l-0.609375 0l0 -6.265625l0.578125 0l0 1.359375q0.328125 -0.65625 0.96875 -1.03125q0.640625 -0.375 1.515625 -0.375zm7.435425 -3.796875l0.546875 0l-3.953125 11.3125l-0.5625 0l3.96875 -11.3125zm0.39892578 12.484375q-0.390625 0 -0.734375 -0.109375q-0.34375 -0.109375 -0.5625 -0.3125l0.25 -0.4375q0.375 0.34375 1.015625 0.34375q0.546875 0 0.828125 -0.328125q0.296875 -0.3125 0.296875 -0.9375l0 -6.859375l0.609375 0l0 6.890625q0 0.796875 -0.453125 1.265625q-0.4375 0.484375 -1.25 0.484375zm1.40625 -10.15625q-0.203125 0 -0.359375 -0.140625q-0.140625 -0.140625 -0.140625 -0.34375q0 -0.203125 0.140625 -0.34375q0.15625 -0.15625 0.359375 -0.15625q0.203125 0 0.34375 0.140625q0.140625 0.140625 0.140625 0.34375q0 0.203125 -0.140625 0.359375q-0.140625 0.140625 -0.34375 0.140625zm4.4107666 7.828125q-0.765625 0 -1.453125 -0.21875q-0.671875 -0.234375 -1.0625 -0.578125l0.28125 -0.484375q0.390625 0.328125 0.984375 0.546875q0.609375 0.203125 1.265625 0.203125q0.953125 0 1.40625 -0.3125q0.453125 -0.3125 0.453125 -0.859375q0 -0.390625 -0.25 -0.625q-0.25 -0.234375 -0.609375 -0.328125q-0.359375 -0.109375 -1.0 -0.234375q-0.734375 -0.125 -1.203125 -0.28125q-0.453125 -0.15625 -0.78125 -0.5q-0.3125 -0.359375 -0.3125 -0.96875q0 -0.75 0.609375 -1.234375q0.625 -0.484375 1.765625 -0.484375q0.59375 0 1.1875 0.171875q0.59375 0.171875 0.953125 0.4375l-0.265625 0.484375q-0.390625 -0.28125 -0.890625 -0.421875q-0.484375 -0.140625 -1.0 -0.140625q-0.875 0 -1.328125 0.328125q-0.4375 0.3125 -0.4375 0.84375q0 0.421875 0.25 0.65625q0.265625 0.234375 0.625 0.359375q0.359375 0.109375 1.03125 0.234375q0.71875 0.125 1.171875 0.28125q0.453125 0.15625 0.765625 0.5q0.3125 0.328125 0.3125 0.90625q0 0.78125 -0.65625 1.25q-0.640625 0.46875 -1.8125 0.46875zm6.595398 0q-0.890625 0 -1.609375 -0.40625q-0.703125 -0.40625 -1.109375 -1.125q-0.40625 -0.734375 -0.40625 -1.640625q0 -0.921875 0.40625 -1.640625q0.40625 -0.734375 1.109375 -1.140625q0.71875 -0.40625 1.609375 -0.40625q0.890625 0 1.59375 0.40625q0.71875 0.40625 1.125 1.140625q0.421875 0.71875 0.421875 1.640625q0 0.90625 -0.421875 1.640625q-0.40625 0.71875 -1.125 1.125q-0.703125 0.40625 -1.59375 0.40625zm0 -0.53125q0.71875 0 1.28125 -0.328125q0.578125 -0.34375 0.90625 -0.9375q0.328125 -0.609375 0.328125 -1.375q0 -0.78125 -0.328125 -1.375q-0.328125 -0.59375 -0.90625 -0.921875q-0.5625 -0.34375 -1.28125 -0.34375q-0.71875 0 -1.296875 0.34375q-0.5625 0.328125 -0.890625 0.921875q-0.328125 0.59375 -0.328125 1.375q0 0.765625 0.328125 1.375q0.328125 0.59375 0.890625 0.9375q0.578125 0.328125 1.296875 0.328125zm8.049438 -5.828125q1.1875 0 1.859375 0.6875q0.6875 0.6875 0.6875 1.96875l0 3.65625l-0.59375 0l0 -3.609375q0 -1.0625 -0.546875 -1.609375q-0.53125 -0.546875 -1.484375 -0.546875q-1.109375 0 -1.75 0.65625q-0.625 0.65625 -0.625 1.765625l0 3.34375l-0.609375 0l0 -6.265625l0.578125 0l0 1.359375q0.328125 -0.65625 0.96875 -1.03125q0.640625 -0.375 1.515625 -0.375zm4.8430176 -2.640625q0.21875 0 0.359375 0.15625q0.140625 0.140625 0.140625 0.34375q0 0.125 -0.03125 0.265625q-0.03125 0.125 -0.078125 0.296875l-0.46875 1.625l-0.421875 0l0.390625 -1.6875q-0.1875 -0.046875 -0.296875 -0.171875q-0.09375 -0.125 -0.09375 -0.328125q0 -0.203125 0.140625 -0.34375q0.140625 -0.15625 0.359375 -0.15625zm1.84375 0q0.21875 0 0.359375 0.15625q0.140625 0.140625 0.140625 0.34375q0 0.125 -0.03125 0.265625q-0.03125 0.125 -0.078125 0.296875l-0.46875 1.625l-0.421875 0l0.390625 -1.6875q-0.1875 -0.046875 -0.296875 -0.171875q-0.09375 -0.125 -0.09375 -0.328125q0 -0.203125 0.140625 -0.34375q0.140625 -0.15625 0.359375 -0.15625zm1.767273 11.28125q0.6875 -1.171875 1.015625 -2.5625q0.328125 -1.390625 0.328125 -3.046875q0 -1.65625 -0.328125 -3.046875q-0.328125 -1.40625 -1.015625 -2.578125l0.5625 0q0.671875 1.0625 1.015625 2.515625q0.359375 1.453125 0.359375 3.109375q0 1.65625 -0.359375 3.09375q-0.34375 1.421875 -1.015625 2.515625l-0.5625 0z" fill-rule="nonzero"/></g></svg>